<svg version="1.1" id="Layer_1" xmlns="http://www.w3.org/2000/svg" xmlns:xlink="http://www.w3.org/1999/xlink" x="0px" y="0px"
	 width="100%" viewBox="0 0 400 400" enable-background="new 0 0 400 400" xml:space="preserve">
<path fill="#FEFEFD" opacity="1.000000" stroke="none" 
	d="
M113.000008,401.000000 
	C75.678246,401.000000 38.356491,401.000000 1.017367,401.000000 
	C1.017367,267.719604 1.017367,134.439194 1.017367,1.079391 
	C134.239014,1.079391 267.478088,1.079391 400.858582,1.079391 
	C400.858582,134.333237 400.858582,267.666595 400.858582,401.000000 
	C368.917145,401.000000 336.927216,401.000000 304.244019,400.627106 
	C300.989868,387.291840 298.485077,374.317719 295.772125,361.387268 
	C295.529236,360.229706 294.119110,358.987427 292.943695,358.407104 
	C283.322205,353.656464 273.627686,349.053650 263.878296,344.056396 
	C259.224823,338.733398 254.648438,333.759918 250.056061,328.357300 
	C249.871399,325.626160 249.702728,323.324127 249.641754,320.594604 
	C249.557892,319.023041 249.366302,317.878937 249.321930,316.325439 
	C249.396240,313.293121 249.323364,310.670197 249.429947,307.690857 
	C249.665146,306.542694 249.720901,305.750916 250.105637,304.843018 
	C256.101715,299.449463 262.184418,294.542908 267.318634,288.789886 
	C272.423065,283.070190 276.574158,276.499695 281.462463,270.167603 
	C285.531860,263.357056 289.282074,256.681152 293.275940,249.837036 
	C293.682281,249.113266 293.845062,248.557739 294.086670,247.737747 
	C294.222321,247.112350 294.279175,246.751434 294.645447,246.219498 
	C295.997528,243.372604 297.040222,240.696716 298.339142,237.810425 
	C298.711304,236.733429 298.827179,235.866837 299.005554,234.606689 
	C299.355103,232.133652 299.642212,230.054169 300.155396,227.844391 
	C300.269592,227.143600 300.157623,226.573090 300.073944,225.606506 
	C300.393768,223.124359 300.685303,221.038315 301.414490,218.964447 
	C305.242218,218.070160 309.703827,218.192642 311.782990,216.027390 
	C315.319733,212.344269 318.080414,207.490585 319.881317,202.650330 
	C324.278992,190.830627 325.111481,178.281647 323.757324,165.927185 
	C322.487549,154.342987 322.027100,141.283356 306.108673,138.674438 
	C306.116394,138.501709 306.079437,138.157883 306.411682,138.026230 
	C306.849976,135.578796 306.988922,133.263977 307.056274,130.947067 
	C307.333740,121.405006 307.663147,111.863197 307.775421,102.318954 
	C307.792755,100.846527 306.776001,99.361938 306.227295,97.452652 
	C306.056671,95.020714 305.896179,93.019112 305.787415,90.727631 
	C305.549500,89.962852 305.259918,89.487930 304.976807,88.634232 
	C304.859100,87.511955 304.734894,86.768463 304.672394,85.660583 
	C302.826813,81.154854 300.919464,77.013496 299.023804,72.502899 
	C298.286011,70.301285 297.815308,68.283394 296.740051,66.667900 
	C291.428955,58.688385 286.205231,50.631191 280.484375,42.948620 
	C272.228729,31.862019 261.464600,23.412121 249.433502,16.925320 
	C235.007492,9.147243 219.449554,5.919187 202.862457,6.852711 
	C184.629105,7.878886 168.413834,14.009391 154.480225,25.318871 
	C145.809540,32.356602 137.753998,40.463787 130.777145,49.175926 
	C125.419083,55.866638 122.176712,64.251625 117.680862,72.052124 
	C112.090683,81.089859 109.383705,90.848274 109.157806,101.001648 
	C108.877586,113.596390 109.601280,126.213478 109.524490,138.925385 
	C102.460602,139.685791 98.131485,143.692673 96.087463,149.645630 
	C89.457077,168.955826 90.435974,188.184875 98.124626,206.989517 
	C101.269478,214.681107 106.310654,220.407181 115.849014,219.655457 
	C115.908562,222.057678 115.680397,224.083618 116.073547,225.980804 
	C117.134842,231.102203 118.460678,236.168762 119.733475,241.623917 
	C120.811096,244.100815 121.836792,246.210876 122.859375,248.675720 
	C123.844002,251.037399 124.831741,253.044312 125.870491,255.421295 
	C134.159027,272.498383 144.978790,287.444214 158.900314,299.693115 
	C164.015732,304.193970 166.828461,308.371063 166.243851,315.394043 
	C166.093460,320.129028 165.985413,324.396301 165.629700,328.899963 
	C160.880157,334.301422 156.378281,339.466461 151.504272,344.676453 
	C143.366623,348.433746 135.631042,352.210602 127.824562,355.834747 
	C122.955681,358.095154 118.769066,360.605927 119.898994,367.112457 
	C120.101753,368.280060 119.260712,369.606110 119.004936,370.879761 
	C116.989136,380.916992 114.998436,390.959259 113.000008,401.000000 
z"/>
<path fill="#212E4D" opacity="1.000000" stroke="none" 
	d="
M263.955353,344.405945 
	C273.627686,349.053650 283.322205,353.656464 292.943695,358.407104 
	C294.119110,358.987427 295.529236,360.229706 295.772125,361.387268 
	C298.485077,374.317719 300.989868,387.291840 303.775391,400.627106 
	C240.645767,401.000000 177.291550,401.000000 113.468666,401.000000 
	C114.998436,390.959259 116.989136,380.916992 119.004936,370.879761 
	C119.260712,369.606110 120.101753,368.280060 119.898994,367.112457 
	C118.769066,360.605927 122.955681,358.095154 127.824562,355.834747 
	C135.631042,352.210602 143.366623,348.433746 151.575775,345.157074 
	C152.018616,347.090851 152.013702,348.588928 152.017807,350.087036 
	C152.040863,358.511230 152.921600,359.103424 161.321426,357.423737 
	C166.280548,356.432129 171.327423,355.879272 176.637543,355.083740 
	C177.088806,360.026031 179.313599,362.842804 184.123489,363.221710 
	C185.210068,363.307312 186.191986,364.318420 187.299362,364.610840 
	C193.091125,366.140198 198.907776,367.575287 204.935516,369.324860 
	C208.087830,372.759552 209.673950,369.471100 211.760284,368.594086 
	C212.876297,369.249298 214.100937,370.063904 214.939987,369.771667 
	C221.618515,367.445007 228.282272,365.048157 234.804596,362.323425 
	C236.183334,361.747467 237.606201,359.856445 237.885635,358.361420 
	C238.492447,355.114960 240.091537,354.830109 242.857498,355.386993 
	C248.361511,356.495148 253.901703,357.473846 259.468628,358.175323 
	C260.532990,358.309418 262.657654,357.072479 262.807587,356.209930 
	C263.482574,352.326080 263.622528,348.349243 263.955353,344.405945 
M204.421188,392.104156 
	C205.757004,393.052673 206.992447,394.339233 208.478867,394.780579 
	C209.059998,394.953094 211.041351,393.099152 210.932846,392.390503 
	C210.632034,390.425964 209.567657,388.578369 208.331970,385.509766 
	C206.408188,388.345551 205.361084,389.889069 204.421188,392.104156 
M211.146729,380.975616 
	C210.181763,379.543030 209.421158,377.850555 208.128754,376.834473 
	C207.735291,376.525146 205.290039,377.831238 204.856918,378.852356 
	C204.441467,379.831818 205.345047,382.487915 205.793808,382.517609 
	C207.473984,382.628632 209.205322,381.965485 211.146729,380.975616 
z"/>
<path fill="#F3D3C0" opacity="1.000000" stroke="none" 
	d="
M117.993454,71.883141 
	C122.176712,64.251625 125.419083,55.866638 130.777145,49.175926 
	C137.753998,40.463787 145.809540,32.356602 154.480225,25.318871 
	C168.413834,14.009391 184.629105,7.878886 202.862457,6.852711 
	C219.449554,5.919187 235.007492,9.147243 249.433502,16.925320 
	C261.464600,23.412121 272.228729,31.862019 280.484375,42.948620 
	C286.205231,50.631191 291.428955,58.688385 296.740051,66.667900 
	C297.815308,68.283394 298.286011,70.301285 299.022827,72.971100 
	C299.017273,76.875023 299.024323,79.941498 299.017792,83.475960 
	C298.990845,103.885063 298.977509,123.826187 298.573547,143.871567 
	C296.443207,143.634521 294.703430,143.293213 292.972290,142.976166 
	C292.980927,143.000397 292.996979,142.951630 293.338440,142.689789 
	C293.533752,141.876160 293.387604,141.324371 293.169861,140.422821 
	C291.039703,139.073288 288.981171,138.073532 286.926178,137.062225 
	C286.929718,137.050659 286.926056,137.076263 286.957397,136.714767 
	C283.513916,127.511116 276.547821,122.213493 267.646973,121.304253 
	C257.600861,120.278015 247.349350,121.262497 236.811203,121.271332 
	C235.281845,121.770958 234.128464,122.371742 232.987549,122.986267 
	C233.000000,123.000000 232.972443,122.974800 232.619659,123.053375 
	C232.117767,125.088882 231.968674,127.045815 231.812103,129.411072 
	C231.724121,131.707275 231.643631,133.595169 231.676331,135.875961 
	C230.867004,136.552109 229.944489,136.835342 228.876297,136.864334 
	C228.188522,136.427246 227.646408,136.244385 226.659821,136.042236 
	C222.262543,135.908112 218.307449,135.287262 216.614685,140.594864 
	C216.162582,142.012466 212.952927,143.853836 211.644974,143.448654 
	C207.859055,142.275787 204.543396,139.595612 200.761139,138.396988 
	C197.677429,137.419739 194.187546,137.724213 190.583206,137.522278 
	C189.905014,137.492599 189.521393,137.401016 189.076797,136.940521 
	C187.643204,135.382538 186.270554,134.193420 184.824921,132.629913 
	C184.807922,126.810547 181.461929,125.226196 176.726700,125.044449 
	C169.096191,124.751572 161.413910,123.621719 153.855545,124.193710 
	C144.566620,124.896667 135.968903,128.018158 130.666687,137.129486 
	C129.251755,137.547943 128.147659,137.814423 126.690567,138.043915 
	C124.535469,139.645401 122.733368,141.283875 120.593437,143.000458 
	C119.180466,143.292404 118.105316,143.506271 117.041824,143.309296 
	C117.364349,138.120148 117.916733,133.343231 117.943565,128.563339 
	C118.049667,109.670448 117.991005,90.776619 117.993454,71.883141 
z"/>
<path fill="#C7A797" opacity="1.000000" stroke="none" 
	d="
M281.143311,270.302277 
	C276.574158,276.499695 272.423065,283.070190 267.318634,288.789886 
	C262.184418,294.542908 256.101715,299.449463 249.739471,304.866241 
	C247.691849,304.673187 246.339371,304.340759 245.026855,303.661987 
	C248.827301,296.994720 252.627884,290.696930 256.296967,284.323425 
	C256.750854,283.535034 256.504730,282.343628 256.652771,280.443024 
	C255.212753,281.387543 254.368134,281.649170 254.014252,282.216766 
	C246.644470,294.037598 236.554337,302.472229 223.116440,306.408264 
	C212.383148,309.552155 201.472565,308.852356 190.869659,305.848053 
	C178.748138,302.413513 169.986069,294.201294 162.518097,284.368164 
	C161.582230,283.135895 159.516708,282.761566 157.700684,281.755737 
	C155.079987,277.418396 154.158173,273.146362 156.135483,268.392456 
	C157.373703,270.008759 157.903656,271.913208 158.872147,273.559631 
	C159.936539,275.369049 161.509735,276.871185 162.676727,278.629700 
	C165.912781,283.506104 175.031525,285.509308 179.985855,282.639832 
	C181.296616,281.880646 183.226624,282.190674 184.946136,282.350464 
	C187.891083,287.174042 191.442780,290.815399 197.110916,291.168610 
	C203.556122,291.570160 210.046432,292.177521 216.465973,291.807587 
	C223.322052,291.412537 229.544922,288.104706 231.398254,281.334991 
	C232.718445,276.512726 234.798523,275.567780 239.242218,275.943787 
	C240.735535,274.954224 241.849503,273.940430 243.069046,272.717163 
	C243.369095,272.250244 243.618973,272.069275 244.299698,272.014832 
	C248.020599,274.581940 250.797791,274.730255 252.294571,269.265167 
	C253.527756,271.216003 254.290222,272.422211 255.769257,274.761993 
	C257.001831,270.271332 257.917725,266.934387 258.833618,263.597443 
	C259.252472,263.594574 259.671295,263.591705 260.090149,263.588806 
	C260.090149,267.197266 260.216156,270.811401 260.053711,274.412537 
	C259.899902,277.821991 260.995728,279.906128 264.630310,278.567780 
	C269.665649,276.713654 275.335541,275.773712 278.253510,270.275879 
	C278.946686,268.969879 280.228729,266.574249 281.143311,270.302277 
z"/>
<path fill="#E9C0B2" opacity="1.000000" stroke="none" 
	d="
M115.844643,219.220444 
	C106.310654,220.407181 101.269478,214.681107 98.124626,206.989517 
	C90.435974,188.184875 89.457077,168.955826 96.087463,149.645630 
	C98.131485,143.692673 102.460602,139.685791 109.563110,139.335602 
	C109.973167,140.993912 109.977753,142.346481 109.632889,143.847198 
	C108.836159,145.662018 108.388878,147.328674 107.648254,149.021057 
	C107.043930,149.372528 106.732948,149.698288 106.421959,150.024033 
	C106.912094,150.352203 107.402229,150.680359 108.100906,151.239197 
	C109.491669,151.751678 110.673889,152.033478 111.753723,152.701859 
	C111.165268,154.749023 110.159363,156.447556 110.277397,158.064026 
	C111.046959,168.602692 112.030922,179.126266 113.002449,189.649445 
	C113.912788,199.509872 114.894394,209.363708 115.844643,219.220444 
z"/>
<path fill="#E9C0B1" opacity="1.000000" stroke="none" 
	d="
M306.100952,138.847183 
	C322.027100,141.283356 322.487549,154.342987 323.757324,165.927185 
	C325.111481,178.281647 324.278992,190.830627 319.881317,202.650330 
	C318.080414,207.490585 315.319733,212.344269 311.782990,216.027390 
	C309.703827,218.192642 305.242218,218.070160 301.418030,218.535004 
	C301.365143,212.492615 301.691345,206.887482 302.138153,201.291962 
	C303.398193,185.512283 304.707825,169.736542 305.989624,153.695129 
	C305.985291,153.077774 305.989197,152.724579 306.312500,152.250870 
	C307.189392,151.760803 307.746826,151.391251 308.659912,150.915497 
	C309.831421,148.332489 311.998047,145.586380 307.397888,144.098587 
	C306.747681,143.940109 306.383972,143.815262 306.019958,143.289185 
	C306.046783,141.541016 306.073853,140.194107 306.100952,138.847183 
z"/>
<path fill="#CE937D" opacity="1.000000" stroke="none" 
	d="
M249.250488,308.047272 
	C249.323364,310.670197 249.396240,313.293121 249.038773,316.398438 
	C246.216263,318.612915 243.700912,320.199707 241.455414,322.104675 
	C235.084824,327.509155 228.300903,332.228333 220.037125,334.092102 
	C214.449661,335.352295 208.723785,335.998749 202.879196,336.684814 
	C202.136703,336.316223 201.574829,336.182556 200.611816,336.018463 
	C192.230453,334.589111 184.991699,331.614685 178.853119,325.696960 
	C175.827896,323.228760 172.944046,321.066040 170.019257,318.584656 
	C169.313782,317.184357 168.649231,316.102661 167.993256,314.685852 
	C168.006195,313.903778 168.010544,313.456818 168.383392,312.963165 
	C171.183426,312.508789 174.237289,310.960876 175.939316,311.889801 
	C183.517731,316.025970 191.587662,317.528748 200.469849,317.990967 
	C205.622070,317.991577 210.308441,317.990295 215.458069,317.992615 
	C221.982910,317.992371 227.822006,318.304626 233.482758,314.562256 
	C238.139160,311.483795 243.950821,310.152771 249.250488,308.047272 
z"/>
<path fill="#CFAD9B" opacity="1.000000" stroke="none" 
	d="
M281.462463,270.167603 
	C280.228729,266.574249 278.946686,268.969879 278.253510,270.275879 
	C275.335541,275.773712 269.665649,276.713654 264.630310,278.567780 
	C260.995728,279.906128 259.899902,277.821991 260.053711,274.412537 
	C260.216156,270.811401 260.090149,267.197266 260.090149,263.588806 
	C259.671295,263.591705 259.252472,263.594574 258.833618,263.597443 
	C257.917725,266.934387 257.001831,270.271332 255.769257,274.761993 
	C254.290222,272.422211 253.527756,271.216003 252.294571,269.265167 
	C250.797791,274.730255 248.020599,274.581940 244.357117,271.655792 
	C249.065292,263.189240 249.264175,254.048935 250.313416,245.014252 
	C252.503326,246.002472 254.215256,247.594009 256.118011,247.870010 
	C264.662506,249.109390 273.374390,251.371826 281.418304,245.848709 
	C281.914825,245.507797 282.624725,245.477615 283.194550,245.314545 
	C284.001923,246.935684 284.717041,248.371582 285.767059,250.479935 
	C286.926910,247.389069 287.699493,245.330154 288.472076,243.271240 
	C288.925751,243.432922 289.379395,243.594604 289.833069,243.756287 
	C289.349426,246.251266 288.865784,248.746262 288.360687,251.351837 
	C290.083893,250.855133 291.558105,250.430206 293.032318,250.005280 
	C289.282074,256.681152 285.531860,263.357056 281.462463,270.167603 
z"/>
<path fill="#D2AF9C" opacity="1.000000" stroke="none" 
	d="
M125.819481,255.051224 
	C124.831741,253.044312 123.844002,251.037399 122.878120,248.277435 
	C122.988289,245.560104 123.206703,243.589157 123.106667,241.634506 
	C123.060867,240.739609 122.388512,239.876770 122.004410,238.631317 
	C122.892380,236.788940 123.776260,235.314636 125.036087,233.213257 
	C126.999321,236.195419 128.234329,238.071411 129.464966,239.940735 
	C133.923691,238.535492 137.962463,237.262604 142.247177,236.156769 
	C142.676743,236.876587 142.860367,237.429337 142.756317,238.191193 
	C141.969131,240.016708 141.469635,241.633118 140.572189,244.537292 
	C142.931259,242.651031 143.962662,241.826340 145.163681,241.160339 
	C145.890945,240.546478 146.448593,239.773895 147.352081,238.963226 
	C149.736862,238.085785 150.924438,236.994324 148.884644,234.708313 
	C148.892624,234.471863 148.941360,234.001221 149.277451,233.864746 
	C150.543640,233.647629 151.794571,233.142120 152.348145,233.560135 
	C154.714706,235.347183 156.624847,237.930283 159.207230,239.166519 
	C160.706924,239.884445 162.689026,243.015686 165.365051,240.010803 
	C166.213486,240.084610 166.696854,240.150055 167.137924,240.667908 
	C167.080093,246.744034 167.064560,252.367737 166.654968,257.988556 
	C163.913483,258.111176 161.410812,257.755890 159.248322,258.454132 
	C153.235397,260.395691 147.368011,262.358490 141.433121,258.353668 
	C141.226440,258.214203 140.804657,258.393463 140.483109,258.424194 
	C140.661392,258.865479 140.839661,259.306763 141.017929,259.748077 
	C138.345490,260.832031 135.673050,261.916016 133.000305,263.000000 
	C133.000000,263.000000 132.999817,263.000000 132.974091,262.678864 
	C132.298889,261.572235 131.649445,260.786713 130.863892,259.692749 
	C129.091675,257.939941 127.455582,256.495575 125.819481,255.051224 
z"/>
<path fill="#394A65" opacity="1.000000" stroke="none" 
	d="
M263.878296,344.056396 
	C263.622528,348.349243 263.482574,352.326080 262.807587,356.209930 
	C262.657654,357.072479 260.532990,358.309418 259.468628,358.175323 
	C253.901703,357.473846 248.361511,356.495148 242.857498,355.386993 
	C240.091537,354.830109 238.492447,355.114960 237.885635,358.361420 
	C237.606201,359.856445 236.183334,361.747467 234.804596,362.323425 
	C228.282272,365.048157 221.618515,367.445007 214.939987,369.771667 
	C214.100937,370.063904 212.876297,369.249298 211.728851,368.268127 
	C216.132950,362.416443 220.638550,357.244202 225.359756,351.978943 
	C225.831009,351.681335 225.991638,351.418640 226.372955,350.981384 
	C229.783066,347.746948 232.877487,344.628967 236.271942,341.441467 
	C238.026855,339.791901 239.377121,338.096924 240.959167,336.656525 
	C243.925964,333.955353 247.026901,331.401520 250.072052,328.786438 
	C254.648438,333.759918 259.224823,338.733398 263.878296,344.056396 
z"/>
<path fill="#394965" opacity="1.000000" stroke="none" 
	d="
M204.715775,369.043121 
	C198.907776,367.575287 193.091125,366.140198 187.299362,364.610840 
	C186.191986,364.318420 185.210068,363.307312 184.123489,363.221710 
	C179.313599,362.842804 177.088806,360.026031 176.637543,355.083740 
	C171.327423,355.879272 166.280548,356.432129 161.321426,357.423737 
	C152.921600,359.103424 152.040863,358.511230 152.017807,350.087036 
	C152.013702,348.588928 152.018616,347.090851 151.947876,345.112122 
	C156.378281,339.466461 160.880157,334.301422 165.996918,328.942078 
	C167.959824,329.854767 169.354065,330.910675 170.646164,332.079498 
	C173.234009,334.420502 175.765961,336.823242 178.416199,339.552460 
	C179.961060,341.706116 181.319916,343.590698 182.875854,345.295380 
	C190.126007,353.238525 197.430634,361.131927 204.715775,369.043121 
z"/>
<path fill="#D7B3A2" opacity="1.000000" stroke="none" 
	d="
M142.001236,235.989716 
	C137.962463,237.262604 133.923691,238.535492 129.464966,239.940735 
	C128.234329,238.071411 126.999321,236.195419 125.036087,233.213257 
	C123.776260,235.314636 122.892380,236.788940 122.004257,238.631622 
	C122.000000,239.000000 121.999443,239.000610 121.680817,239.041031 
	C120.915497,239.713593 120.468811,240.345718 119.938904,241.049988 
	C119.855675,241.122131 119.681549,241.257080 119.681549,241.257080 
	C118.460678,236.168762 117.134842,231.102203 116.073547,225.980804 
	C115.680397,224.083618 115.908562,222.057678 115.849014,219.655457 
	C114.894394,209.363708 113.912788,199.509872 113.002449,189.649445 
	C112.030922,179.126266 111.046959,168.602692 110.277397,158.064026 
	C110.159363,156.447556 111.165268,154.749023 112.113564,152.615585 
	C114.060135,152.210434 115.544495,152.278152 117.038254,152.726074 
	C117.063705,158.073151 117.079742,163.040009 117.071930,168.342834 
	C117.374397,169.447906 117.700737,170.217026 118.016510,171.362305 
	C118.002846,172.490891 117.999756,173.243317 117.703186,174.292572 
	C117.291107,182.734634 117.112236,190.879944 117.118279,199.025116 
	C117.119194,200.260757 117.745026,201.659805 118.477837,202.705826 
	C126.272942,213.832703 134.148087,224.903503 142.001236,235.989716 
z"/>
<path fill="#D5B2A0" opacity="1.000000" stroke="none" 
	d="
M293.275940,249.837036 
	C291.558105,250.430206 290.083893,250.855133 288.360687,251.351837 
	C288.865784,248.746262 289.349426,246.251266 289.833069,243.756287 
	C289.379395,243.594604 288.925751,243.432922 288.472076,243.271240 
	C287.699493,245.330154 286.926910,247.389069 285.767059,250.479935 
	C284.717041,248.371582 284.001923,246.935684 283.194550,245.314545 
	C282.624725,245.477615 281.914825,245.507797 281.418304,245.848709 
	C273.374390,251.371826 264.662506,249.109390 256.118011,247.870010 
	C254.215256,247.594009 252.503326,246.002472 250.082870,244.838409 
	C249.320831,244.107742 249.179428,243.555283 249.417999,243.001663 
	C255.151367,241.570084 259.139648,238.446381 262.030243,233.685471 
	C262.931610,232.200851 264.653656,231.214462 266.152161,230.332489 
	C267.495514,233.965576 268.686676,237.266159 270.062317,241.077774 
	C274.855652,235.161545 279.410889,229.539185 283.976013,224.333008 
	C283.849762,226.660507 283.713562,228.571823 283.550140,230.865509 
	C287.086639,231.074310 291.131287,232.481659 293.592834,231.089630 
	C295.570618,229.971191 295.630829,225.461914 296.671570,222.029709 
	C297.414764,223.299377 298.208008,224.654510 299.020752,226.298752 
	C299.336639,227.050125 299.632965,227.512405 299.929291,227.974670 
	C299.642212,230.054169 299.355103,232.133652 298.679565,234.642212 
	C297.653503,235.658310 297.015930,236.245331 296.378326,236.832367 
	C296.946503,237.228516 297.514709,237.624664 298.082886,238.020828 
	C297.040222,240.696716 295.997528,243.372604 294.434509,245.929840 
	C293.060547,246.108932 292.207001,246.406693 291.353424,246.704437 
	C292.238220,247.137024 293.123047,247.569611 294.007843,248.002213 
	C293.845062,248.557739 293.682281,249.113266 293.275940,249.837036 
z"/>
<path fill="#E4B9A5" opacity="1.000000" stroke="none" 
	d="
M203.059814,336.919739 
	C208.723785,335.998749 214.449661,335.352295 220.037125,334.092102 
	C228.300903,332.228333 235.084824,327.509155 241.455414,322.104675 
	C243.700912,320.199707 246.216263,318.612915 248.891571,316.807861 
	C249.366302,317.878937 249.557892,319.023041 249.386307,320.660522 
	C247.689240,323.605591 246.672913,326.313568 244.948624,328.450165 
	C242.215240,331.837158 239.008362,334.842010 235.681824,338.034790 
	C234.577148,338.707489 233.792450,339.353912 232.685760,340.041870 
	C231.911102,340.725006 231.458450,341.366638 231.002945,342.004517 
	C231.000092,342.000793 231.008514,342.006104 230.651596,342.039795 
	C225.412308,343.566986 220.529938,345.060516 215.879700,346.483002 
	C214.944626,344.974060 214.229767,342.579865 213.261169,342.472321 
	C209.082397,342.008636 204.783096,341.812439 200.616104,342.290161 
	C196.404282,342.773010 192.389847,347.007904 188.019470,342.311493 
	C187.511932,341.766113 185.378448,342.733795 183.734848,342.818115 
	C182.313293,341.417297 181.155670,340.198334 179.958450,338.624023 
	C179.277725,336.511200 178.636612,334.753784 178.126801,332.689117 
	C178.047943,331.255035 177.582336,330.100281 177.701370,329.009338 
	C177.814499,327.972351 178.538879,327.002045 178.994492,326.002441 
	C184.991699,331.614685 192.230453,334.589111 200.642883,336.310242 
	C201.736649,336.728180 202.398224,336.823975 203.059814,336.919739 
z"/>
<path fill="#D8B4A3" opacity="1.000000" stroke="none" 
	d="
M299.001221,226.009659 
	C298.208008,224.654510 297.414764,223.299377 296.671570,222.029709 
	C295.630829,225.461914 295.570618,229.971191 293.592834,231.089630 
	C291.131287,232.481659 287.086639,231.074310 283.550140,230.865509 
	C283.713562,228.571823 283.849762,226.660507 284.014832,223.989594 
	C286.498901,219.502853 288.763733,215.631790 291.450043,212.079453 
	C296.547394,205.338684 299.873962,198.421219 299.197327,189.406143 
	C298.365753,178.326950 298.982452,167.139069 299.061829,155.616364 
	C301.432953,154.809448 303.715424,154.384354 305.997894,153.959259 
	C304.707825,169.736542 303.398193,185.512283 302.138153,201.291962 
	C301.691345,206.887482 301.365143,212.492615 300.980347,218.522812 
	C300.685303,221.038315 300.393768,223.124359 299.812653,225.605881 
	C299.349152,226.004105 299.175201,226.006882 299.001221,226.009659 
z"/>
<path fill="#D8B7A8" opacity="1.000000" stroke="none" 
	d="
M109.982346,143.699051 
	C109.977753,142.346481 109.973167,140.993912 109.929955,139.231125 
	C109.601280,126.213478 108.877586,113.596390 109.157806,101.001648 
	C109.383705,90.848274 112.090683,81.089859 117.680862,72.052124 
	C117.991005,90.776619 118.049667,109.670448 117.943565,128.563339 
	C117.916733,133.343231 117.364349,138.120148 116.611221,143.418793 
	C114.106766,143.859116 112.044556,143.779083 109.982346,143.699051 
z"/>
<path fill="#D7B3A2" opacity="1.000000" stroke="none" 
	d="
M306.108673,138.674438 
	C306.073853,140.194107 306.046783,141.541016 305.593872,143.417236 
	C303.100098,143.886795 301.032104,143.827042 298.964142,143.767303 
	C298.977509,123.826187 298.990845,103.885063 299.351868,83.506752 
	C301.336578,84.054695 302.973633,85.039833 304.610657,86.024963 
	C304.734894,86.768463 304.859100,87.511955 304.759460,88.793938 
	C304.935608,89.894119 305.335663,90.455811 305.735687,91.017502 
	C305.896179,93.019112 306.056671,95.020714 305.886719,97.733238 
	C305.730682,111.682060 305.905060,124.919975 306.079437,138.157883 
	C306.079437,138.157883 306.116394,138.501709 306.108673,138.674438 
z"/>
<path fill="#C4A89A" opacity="1.000000" stroke="none" 
	d="
M125.870491,255.421295 
	C127.455582,256.495575 129.091675,257.939941 130.868713,260.046509 
	C131.673065,261.472443 132.336441,262.236237 132.999817,263.000000 
	C132.999817,263.000000 133.000000,263.000000 133.003967,263.366699 
	C135.349503,268.479584 137.887589,273.036865 143.495895,274.642456 
	C143.447449,278.656952 146.616943,283.380646 150.490463,285.737366 
	C152.046066,286.683807 153.178482,288.325745 154.972641,290.120422 
	C155.896317,288.947174 157.450058,286.973572 159.272873,285.217560 
	C163.338135,293.889252 168.434601,301.451355 174.577301,307.995300 
	C170.539429,307.766815 166.917999,307.507202 168.014893,313.009857 
	C168.010544,313.456818 168.006195,313.903778 167.709518,314.671570 
	C167.040192,314.970337 166.663193,314.948303 166.286194,314.926270 
	C166.828461,308.371063 164.015732,304.193970 158.900314,299.693115 
	C144.978790,287.444214 134.159027,272.498383 125.870491,255.421295 
z"/>
<path fill="#C49786" opacity="1.000000" stroke="none" 
	d="
M249.429932,307.690857 
	C243.950821,310.152771 238.139160,311.483795 233.482758,314.562256 
	C227.822006,318.304626 221.982910,317.992371 215.539642,317.616333 
	C220.695801,315.234528 226.352448,313.504089 231.735107,311.147705 
	C236.316223,309.142273 240.581741,306.415833 244.986877,304.008362 
	C246.339371,304.340759 247.691849,304.673187 249.410492,304.982361 
	C249.720901,305.750916 249.665146,306.542694 249.429932,307.690857 
z"/>
<path fill="#D5BAAD" opacity="1.000000" stroke="none" 
	d="
M306.411682,138.026230 
	C305.905060,124.919975 305.730682,111.682060 305.896881,98.163559 
	C306.776001,99.361938 307.792755,100.846527 307.775421,102.318954 
	C307.663147,111.863197 307.333740,121.405006 307.056274,130.947067 
	C306.988922,133.263977 306.849976,135.578796 306.411682,138.026230 
z"/>
<path fill="#D8B7A8" opacity="1.000000" stroke="none" 
	d="
M166.243851,315.394043 
	C166.663193,314.948303 167.040192,314.970337 167.700928,315.006683 
	C168.649231,316.102661 169.313782,317.184357 169.958160,318.977875 
	C168.092834,325.917389 171.708145,331.887878 177.995499,332.996338 
	C178.636612,334.753784 179.277725,336.511200 179.538162,338.671478 
	C178.878662,339.116394 178.599823,339.158447 178.320999,339.200500 
	C175.765961,336.823242 173.234009,334.420502 170.646164,332.079498 
	C169.354065,330.910675 167.959824,329.854767 166.244568,328.705658 
	C165.985413,324.396301 166.093460,320.129028 166.243851,315.394043 
z"/>
<path fill="#D5BAAD" opacity="1.000000" stroke="none" 
	d="
M236.001816,338.008545 
	C239.008362,334.842010 242.215240,331.837158 244.948624,328.450165 
	C246.672913,326.313568 247.689240,323.605591 249.278595,321.088013 
	C249.702728,323.324127 249.871399,325.626160 250.056061,328.357300 
	C247.026901,331.401520 243.925964,333.955353 240.959167,336.656525 
	C239.377121,338.096924 238.026855,339.791901 236.277176,341.094116 
	C235.988861,339.880371 235.995346,338.944458 236.001816,338.008545 
z"/>
<path fill="#D5BAAD" opacity="1.000000" stroke="none" 
	d="
M304.672394,85.660591 
	C302.973633,85.039833 301.336578,84.054695 299.365479,83.038765 
	C299.024323,79.941498 299.017273,76.875023 299.011169,73.340347 
	C300.919464,77.013496 302.826813,81.154854 304.672394,85.660591 
z"/>
<path fill="#D7B3A2" opacity="1.000000" stroke="none" 
	d="
M122.000153,238.999695 
	C122.388512,239.876770 123.060867,240.739609 123.106667,241.634506 
	C123.206703,243.589157 122.988289,245.560104 122.881241,247.922668 
	C121.836792,246.210876 120.811096,244.100815 119.733475,241.623917 
	C119.681549,241.257080 119.855675,241.122131 120.256989,241.015411 
	C121.105354,240.272644 121.552399,239.636627 121.999435,239.000610 
	C121.999443,239.000610 122.000000,239.000000 122.000153,238.999695 
z"/>
<path fill="#D8B4A3" opacity="1.000000" stroke="none" 
	d="
M298.339142,237.810425 
	C297.514709,237.624664 296.946503,237.228516 296.378326,236.832367 
	C297.015930,236.245331 297.653503,235.658310 298.617096,235.035767 
	C298.827179,235.866837 298.711304,236.733429 298.339142,237.810425 
z"/>
<path fill="#CFAD9B" opacity="1.000000" stroke="none" 
	d="
M294.086670,247.737747 
	C293.123047,247.569611 292.238220,247.137024 291.353424,246.704437 
	C292.207001,246.406693 293.060547,246.108932 294.125061,246.100845 
	C294.279175,246.751434 294.222321,247.112350 294.086670,247.737747 
z"/>
<path fill="#E9C0B1" opacity="1.000000" stroke="none" 
	d="
M299.020752,226.298752 
	C299.175201,226.006882 299.349152,226.004105 299.784393,226.001968 
	C300.157623,226.573090 300.269592,227.143600 300.155396,227.844391 
	C299.632965,227.512405 299.336639,227.050125 299.020752,226.298752 
z"/>
<path fill="#D5BAAD" opacity="1.000000" stroke="none" 
	d="
M305.787415,90.727631 
	C305.335663,90.455811 304.935608,89.894119 304.752930,89.172714 
	C305.259918,89.487930 305.549500,89.962852 305.787415,90.727631 
z"/>
<path fill="#D6C0BC" opacity="1.000000" stroke="none" 
	d="
M178.416199,339.552460 
	C178.599823,339.158447 178.878662,339.116394 179.577774,339.026855 
	C181.155670,340.198334 182.313293,341.417297 183.880524,343.117126 
	C189.907883,349.166809 195.807983,354.483917 201.062347,360.376801 
	C206.113068,366.041290 208.108398,365.897552 213.573593,360.443512 
	C216.859222,357.164581 219.066528,351.717346 225.144135,352.071960 
	C220.638550,357.244202 216.132950,362.416443 211.658813,367.914612 
	C209.673950,369.471100 208.087830,372.759552 204.935516,369.324860 
	C197.430634,361.131927 190.126007,353.238525 182.875854,345.295380 
	C181.319916,343.590698 179.961060,341.706116 178.416199,339.552460 
z"/>
<path fill="#C9D2DE" opacity="1.000000" stroke="none" 
	d="
M204.367584,391.768372 
	C205.361084,389.889069 206.408188,388.345551 208.331970,385.509766 
	C209.567657,388.578369 210.632034,390.425964 210.932846,392.390503 
	C211.041351,393.099152 209.059998,394.953094 208.478867,394.780579 
	C206.992447,394.339233 205.757004,393.052673 204.367584,391.768372 
z"/>
<path fill="#C9D2DE" opacity="1.000000" stroke="none" 
	d="
M211.032104,381.284088 
	C209.205322,381.965485 207.473984,382.628632 205.793808,382.517609 
	C205.345047,382.487915 204.441467,379.831818 204.856918,378.852356 
	C205.290039,377.831238 207.735291,376.525146 208.128754,376.834473 
	C209.421158,377.850555 210.181763,379.543030 211.032104,381.284088 
z"/>
<path fill="#ECD0C1" opacity="1.000000" stroke="none" 
	d="
M190.877762,137.460358 
	C194.187546,137.724213 197.677429,137.419739 200.761139,138.396988 
	C204.543396,139.595612 207.859055,142.275787 211.644974,143.448654 
	C212.952927,143.853836 216.162582,142.012466 216.614685,140.594864 
	C218.307449,135.287262 222.262543,135.908112 226.407745,136.277344 
	C225.445572,137.728989 224.290985,138.926224 223.136383,140.123444 
	C223.516922,140.542191 223.897446,140.960922 224.277985,141.379654 
	C225.215317,140.746323 226.152649,140.112976 227.546402,139.405548 
	C239.968460,139.059906 251.934097,138.788330 264.030609,138.835983 
	C266.110992,139.082306 268.060455,139.009399 270.472961,138.921524 
	C274.963165,138.955597 278.990326,139.004639 283.182159,139.343506 
	C284.220276,139.765610 285.093750,139.897873 286.316132,140.162567 
	C288.387085,140.538986 290.109131,140.782990 291.834320,141.373932 
	C292.223969,142.131134 292.610474,142.541382 292.996979,142.951630 
	C292.996979,142.951630 292.980927,143.000397 292.806366,143.333054 
	C292.714569,144.444061 292.797333,145.222427 292.657715,146.300079 
	C292.626831,153.398636 292.818329,160.197891 292.652954,167.063629 
	C289.658386,170.431564 288.397980,174.521347 283.414001,176.296326 
	C280.845947,177.210892 279.485474,177.658035 276.790741,177.000397 
	C273.746124,176.257355 270.266052,177.298584 266.520447,177.664612 
	C261.382416,177.861389 256.699280,177.957428 251.729736,177.746735 
	C245.285599,177.540237 239.127899,177.640457 232.586075,177.787979 
	C228.014984,178.497742 227.079544,175.422821 226.065842,172.081665 
	C224.675980,166.687912 223.256912,161.683914 221.810150,156.258148 
	C221.465591,151.170197 221.148773,146.504028 220.831955,141.837860 
	C220.444595,141.783737 220.057236,141.729614 219.669876,141.675491 
	C219.242905,143.705566 218.815918,145.735626 218.542084,147.037582 
	C211.463760,147.037582 204.542389,147.037582 197.435883,147.037582 
	C197.866516,142.512711 196.247650,138.730576 190.877762,137.460358 
M265.030334,155.073364 
	C266.814270,155.031784 268.631592,155.177277 270.367554,154.867172 
	C271.195587,154.719238 271.868927,153.705460 273.354248,153.036453 
	C274.121948,152.728531 274.889618,152.420593 277.266876,151.467026 
	C272.974854,149.572845 270.064636,148.288483 267.158997,146.244873 
	C262.666351,139.374405 248.083069,139.176498 242.360580,145.942261 
	C237.247269,146.638214 236.222076,150.333664 235.632965,154.785751 
	C237.345062,154.089645 238.686050,153.544434 240.660721,153.401321 
	C243.126938,154.609482 246.089294,155.305084 247.966278,157.121948 
	C253.580582,162.556442 259.748718,162.006638 265.030334,155.073364 
M245.536194,170.072510 
	C256.956940,177.181732 264.482788,175.793076 273.697113,165.680710 
	C274.357452,164.956024 274.377563,163.647995 274.695374,162.611206 
	C273.570862,162.318100 272.446594,161.773788 271.321838,161.772842 
	C264.260742,161.766876 257.198334,161.992218 250.138794,161.915787 
	C245.855698,161.869415 241.576981,161.418335 237.296280,161.149063 
	C237.015930,161.747482 236.735565,162.345901 236.455200,162.944321 
	C239.294357,165.162308 242.133514,167.380280 245.536194,170.072510 
M202.412247,141.483109 
	C202.412247,141.483109 202.522537,141.417480 202.412247,141.483109 
z"/>
<path fill="#9E8777" opacity="1.000000" stroke="none" 
	d="
M231.563126,135.483047 
	C231.643631,133.595169 231.724121,131.707275 232.124878,129.169937 
	C232.620895,126.671921 232.796661,124.823357 232.972443,122.974800 
	C232.972443,122.974800 233.000000,123.000000 233.351273,122.995331 
	C234.864090,122.451263 236.025635,121.911880 237.187180,121.372498 
	C247.349350,121.262497 257.600861,120.278015 267.646973,121.304253 
	C276.547821,122.213493 283.513916,127.511116 286.577026,136.815979 
	C285.121521,137.207413 284.077759,137.136124 282.962463,136.726868 
	C281.980011,135.887772 281.069092,135.386642 279.788208,134.755966 
	C277.059540,134.072769 274.679657,132.966797 272.345642,133.056427 
	C258.684631,133.581024 245.034348,134.385315 231.437866,135.186646 
	C231.495300,135.278061 231.563126,135.483047 231.563126,135.483047 
z"/>
<path fill="#9B8576" opacity="1.000000" stroke="none" 
	d="
M130.977509,136.977509 
	C135.968903,128.018158 144.566620,124.896667 153.855545,124.193710 
	C161.413910,123.621719 169.096191,124.751572 176.726700,125.044449 
	C181.461929,125.226196 184.807922,126.810547 184.796722,133.029007 
	C184.934738,135.130341 185.027969,136.458160 184.700012,137.728241 
	C177.765076,137.154602 171.246811,136.186157 164.738815,136.250809 
	C158.308823,136.314667 151.889175,137.422623 145.501007,138.059875 
	C145.537018,138.047226 145.599579,138.090973 145.142578,138.074524 
	C140.116211,137.697891 135.546860,137.337692 130.977509,136.977509 
z"/>
<path fill="#433029" opacity="1.000000" stroke="none" 
	d="
M190.583206,137.522278 
	C196.247650,138.730576 197.866516,142.512711 197.435883,147.037582 
	C204.542389,147.037582 211.463760,147.037582 218.542084,147.037582 
	C218.815918,145.735626 219.242905,143.705566 219.669876,141.675491 
	C220.057236,141.729614 220.444595,141.783737 220.831955,141.837860 
	C221.148773,146.504028 221.465591,151.170197 221.467957,156.264374 
	C218.059753,147.389709 203.597946,145.110703 196.416229,153.137726 
	C196.090469,155.194717 195.967148,156.939987 195.551575,158.732376 
	C194.869217,158.837967 194.479080,158.896439 194.163055,158.552887 
	C194.135910,154.628540 193.572571,151.042374 194.048187,147.599747 
	C194.669525,143.102142 193.487030,140.275833 188.968903,138.869324 
	C188.986588,138.348999 188.984451,138.140625 189.052155,137.784271 
	C189.122025,137.636307 189.137756,137.309418 189.137756,137.309418 
	C189.521393,137.401016 189.905014,137.492599 190.583206,137.522278 
z"/>
<path fill="#110B09" opacity="1.000000" stroke="none" 
	d="
M109.632889,143.847198 
	C112.044556,143.779083 114.106766,143.859116 116.599579,143.829636 
	C118.105316,143.506271 119.180466,143.292404 120.958817,143.044693 
	C122.395973,143.009491 123.129921,143.008133 123.788452,143.433914 
	C123.561287,146.136139 123.409523,148.411224 122.996666,150.822784 
	C122.097221,151.382904 121.458878,151.806534 120.442642,152.171997 
	C119.052780,152.191177 118.040817,152.268524 117.028854,152.345856 
	C115.544495,152.278152 114.060135,152.210434 112.215942,152.229004 
	C110.673889,152.033478 109.491669,151.751678 108.271919,150.921082 
	C108.136787,149.913315 108.039192,149.454315 107.941605,148.995331 
	C108.388878,147.328674 108.836159,145.662018 109.632889,143.847198 
z"/>
<path fill="#110B09" opacity="1.000000" stroke="none" 
	d="
M292.880096,146.000778 
	C292.797333,145.222427 292.714569,144.444061 292.797729,143.308807 
	C294.703430,143.293213 296.443207,143.634521 298.573547,143.871567 
	C301.032104,143.827042 303.100098,143.886795 305.594147,143.818481 
	C306.383972,143.815262 306.747681,143.940109 307.399078,144.532501 
	C307.892578,147.007248 308.098450,149.014465 308.304291,151.021683 
	C307.746826,151.391251 307.189392,151.760803 305.865173,152.167267 
	C301.802246,152.234024 298.506073,152.263870 294.840240,152.115967 
	C293.940430,149.959076 293.410248,147.979935 292.880096,146.000778 
z"/>
<path fill="#281A14" opacity="1.000000" stroke="none" 
	d="
M283.033997,137.064835 
	C284.077759,137.136124 285.121521,137.207413 286.545654,137.177490 
	C286.926056,137.076263 286.929718,137.050659 286.809509,137.306427 
	C286.458862,138.044296 286.228424,138.526398 285.710266,138.825775 
	C284.620911,138.779953 283.819214,138.916824 283.017517,139.053696 
	C278.990326,139.004639 274.963165,138.955597 270.175415,138.672211 
	C267.576447,138.464172 265.738098,138.490463 263.899719,138.516754 
	C251.934097,138.788330 239.968460,139.059906 227.245361,139.225983 
	C227.332596,138.453186 228.177292,137.785889 229.021973,137.118561 
	C229.944489,136.835342 230.867004,136.552109 231.676331,135.875961 
	C231.563126,135.483047 231.495300,135.278061 231.353973,135.693878 
	C236.440445,136.256302 241.668228,136.402924 247.363937,136.633392 
	C254.255142,136.674103 260.678436,136.630936 267.550537,136.672668 
	C271.978760,136.764023 275.958160,136.770477 280.309967,136.911697 
	C281.466248,137.052597 282.250122,137.058716 283.033997,137.064835 
z"/>
<path fill="#76645A" opacity="1.000000" stroke="none" 
	d="
M123.863861,143.006775 
	C123.129921,143.008133 122.395973,143.009491 121.296646,142.966614 
	C122.733368,141.283875 124.535469,139.645401 126.743584,138.373230 
	C129.265167,139.050354 131.380722,139.361160 133.298126,139.916351 
	C131.850464,141.223557 130.600952,142.286362 129.348557,143.351639 
	C127.138657,140.591705 127.138657,140.591705 123.863861,143.006775 
z"/>
<path fill="#433029" opacity="1.000000" stroke="none" 
	d="
M133.496292,139.671967 
	C131.380722,139.361160 129.265167,139.050354 127.096588,138.410217 
	C128.147659,137.814423 129.251755,137.547943 130.666687,137.129486 
	C135.546860,137.337692 140.116211,137.697891 144.866547,138.451172 
	C141.197113,139.120163 137.346710,139.396057 133.496292,139.671967 
z"/>
<path fill="#9E8777" opacity="1.000000" stroke="none" 
	d="
M285.997955,139.008484 
	C286.228424,138.526398 286.458862,138.044296 286.805969,137.317993 
	C288.981171,138.073532 291.039703,139.073288 292.819519,140.503571 
	C292.304230,140.965088 292.067719,140.996033 291.831177,141.026978 
	C290.109131,140.782990 288.387085,140.538986 286.302246,139.906433 
	C285.958923,139.348083 285.978455,139.178284 285.997955,139.008484 
z"/>
<path fill="#ECD0C1" opacity="1.000000" stroke="none" 
	d="
M189.076797,136.940521 
	C189.137756,137.309418 189.122025,137.636307 188.669342,137.721954 
	C187.184845,137.800385 186.153015,137.793182 185.121185,137.785980 
	C185.027969,136.458160 184.934738,135.130341 184.869720,133.403412 
	C186.270554,134.193420 187.643204,135.382538 189.076797,136.940521 
z"/>
<path fill="#C4A89A" opacity="1.000000" stroke="none" 
	d="
M228.876312,136.864349 
	C228.177292,137.785889 227.332596,138.453186 226.788940,139.300064 
	C226.152649,140.112976 225.215317,140.746323 224.277985,141.379654 
	C223.897446,140.960922 223.516922,140.542191 223.136383,140.123444 
	C224.290985,138.926224 225.445572,137.728989 226.852234,136.296661 
	C227.646408,136.244385 228.188522,136.427246 228.876312,136.864349 
z"/>
<path fill="#C4A89A" opacity="1.000000" stroke="none" 
	d="
M232.619659,123.053375 
	C232.796661,124.823357 232.620895,126.671921 232.132355,128.761612 
	C231.968674,127.045815 232.117767,125.088882 232.619659,123.053375 
z"/>
<path fill="#C4A89A" opacity="1.000000" stroke="none" 
	d="
M236.811203,121.271332 
	C236.025635,121.911880 234.864090,122.451263 233.338806,122.981598 
	C234.128464,122.371742 235.281845,121.770958 236.811203,121.271332 
z"/>
<path fill="#76645A" opacity="1.000000" stroke="none" 
	d="
M291.834320,141.373932 
	C292.067719,140.996033 292.304230,140.965088 292.891113,140.853363 
	C293.387604,141.324371 293.533752,141.876160 293.338440,142.689789 
	C292.610474,142.541382 292.223969,142.131134 291.834320,141.373932 
z"/>
<path fill="#F5D1C0" opacity="1.000000" stroke="none" 
	d="
M249.038040,243.002823 
	C249.179428,243.555283 249.320831,244.107742 249.692749,244.836044 
	C249.264175,254.048935 249.065292,263.189240 243.981689,271.605835 
	C243.618973,272.069275 243.369095,272.250244 242.729019,272.769165 
	C241.143234,273.993622 240.003067,274.956604 238.862885,275.919586 
	C234.798523,275.567780 232.718445,276.512726 231.398254,281.334991 
	C229.544922,288.104706 223.322052,291.412537 216.465973,291.807587 
	C210.046432,292.177521 203.556122,291.570160 197.110916,291.168610 
	C191.442780,290.815399 187.891083,287.174042 184.973511,281.969971 
	C184.610138,278.370422 183.594727,276.492371 180.254715,275.793671 
	C174.445084,274.578369 170.849426,270.558960 168.953308,264.637817 
	C168.625092,263.189178 168.284927,262.106842 167.931702,260.704559 
	C167.628769,259.586914 167.338913,258.789185 167.049042,257.991455 
	C167.064560,252.367737 167.080093,246.744034 167.575058,240.617950 
	C171.046173,239.959290 174.037842,239.803024 177.391678,239.727570 
	C178.487061,239.755768 179.220276,239.703140 180.298096,239.745026 
	C181.110657,239.776230 181.578598,239.712891 182.481598,239.718903 
	C185.264053,239.742935 187.611496,239.697647 190.385193,239.754761 
	C192.554276,239.788254 194.297104,239.719330 196.500153,239.720551 
	C204.293213,239.743927 211.626038,239.697159 219.408051,239.752945 
	C222.917145,239.788315 225.977036,239.721130 229.456451,239.721619 
	C231.571243,239.748032 233.266556,239.706802 235.420563,239.764923 
	C240.204132,239.976608 244.529007,240.088928 248.882614,240.550995 
	C248.953583,241.601440 248.995804,242.302124 249.038040,243.002823 
M186.779404,259.677429 
	C188.848724,267.502686 194.160690,271.578918 201.749023,273.937195 
	C213.935913,277.724518 224.966827,271.791779 229.565384,260.484589 
	C230.711517,257.666382 230.255447,255.038254 226.260147,255.029373 
	C214.108353,255.002350 201.956482,255.005844 189.804672,255.025330 
	C187.226410,255.029465 185.479279,255.853790 186.779404,259.677429 
z"/>
<path fill="#B89889" opacity="1.000000" stroke="none" 
	d="
M245.026855,303.661987 
	C240.581741,306.415833 236.316223,309.142273 231.735107,311.147705 
	C226.352448,313.504089 220.695801,315.234528 215.076401,317.612732 
	C210.308441,317.990295 205.622070,317.991577 200.388550,317.614929 
	C191.566864,314.155853 183.292328,311.074677 175.017792,307.993530 
	C168.434601,301.451355 163.338135,293.889252 159.246429,284.896973 
	C158.625458,283.569122 158.300034,282.779419 157.974609,281.989716 
	C159.516708,282.761566 161.582230,283.135895 162.518097,284.368164 
	C169.986069,294.201294 178.748138,302.413513 190.869659,305.848053 
	C201.472565,308.852356 212.383148,309.552155 223.116440,306.408264 
	C236.554337,302.472229 246.644470,294.037598 254.014252,282.216766 
	C254.368134,281.649170 255.212753,281.387543 256.652771,280.443024 
	C256.504730,282.343628 256.750854,283.535034 256.296967,284.323425 
	C252.627884,290.696930 248.827301,296.994720 245.026855,303.661987 
z"/>
<path fill="#CCAB9A" opacity="1.000000" stroke="none" 
	d="
M157.700684,281.755737 
	C158.300034,282.779419 158.625458,283.569122 158.977356,284.679413 
	C157.450058,286.973572 155.896317,288.947174 154.972641,290.120422 
	C153.178482,288.325745 152.046066,286.683807 150.490463,285.737366 
	C146.616943,283.380646 143.447449,278.656952 143.495895,274.642456 
	C137.887589,273.036865 135.349503,268.479584 133.004272,263.366699 
	C135.673050,261.916016 138.345490,260.832031 141.017929,259.748077 
	C140.839661,259.306763 140.661392,258.865479 140.483109,258.424194 
	C140.804657,258.393463 141.226440,258.214203 141.433121,258.353668 
	C147.368011,262.358490 153.235397,260.395691 159.248322,258.454132 
	C161.410812,257.755890 163.913483,258.111176 166.654968,257.988556 
	C167.338913,258.789185 167.628769,259.586914 167.677826,260.927429 
	C167.938461,262.648163 168.439911,263.826141 168.941376,265.004120 
	C170.849426,270.558960 174.445084,274.578369 180.254715,275.793671 
	C183.594727,276.492371 184.610138,278.370422 184.899673,281.629181 
	C183.226624,282.190674 181.296616,281.880646 179.985855,282.639832 
	C175.031525,285.509308 165.912781,283.506104 162.676727,278.629700 
	C161.509735,276.871185 159.936539,275.369049 158.872147,273.559631 
	C157.903656,271.913208 157.373703,270.008759 156.135483,268.392456 
	C154.158173,273.146362 155.079987,277.418396 157.700684,281.755737 
z"/>
<path fill="#CFAD9B" opacity="1.000000" stroke="none" 
	d="
M239.242233,275.943787 
	C240.003067,274.956604 241.143234,273.993622 242.623444,272.978638 
	C241.849503,273.940430 240.735535,274.954224 239.242233,275.943787 
z"/>
<path fill="#D7B3A2" opacity="1.000000" stroke="none" 
	d="
M107.648254,149.021057 
	C108.039192,149.454315 108.136787,149.913315 108.063370,150.690399 
	C107.402229,150.680359 106.912094,150.352203 106.421959,150.024033 
	C106.732948,149.698288 107.043930,149.372528 107.648254,149.021057 
z"/>
<path fill="#ECD0C1" opacity="1.000000" stroke="none" 
	d="
M295.209869,152.293716 
	C298.506073,152.263870 301.802246,152.234024 305.545776,152.287781 
	C305.989197,152.724579 305.985291,153.077774 305.989624,153.695114 
	C303.715424,154.384354 301.432953,154.809448 298.695770,155.616699 
	C297.262360,155.999359 296.283691,155.999878 295.239441,155.633987 
	C295.185883,154.276291 295.197876,153.285004 295.209869,152.293716 
z"/>
<path fill="#D7B3A2" opacity="1.000000" stroke="none" 
	d="
M308.659912,150.915497 
	C308.098450,149.014465 307.892578,147.007248 307.685547,144.566132 
	C311.998047,145.586380 309.831421,148.332489 308.659912,150.915497 
z"/>
<path fill="#C49786" opacity="1.000000" stroke="none" 
	d="
M174.577301,307.995300 
	C183.292328,311.074677 191.566864,314.155853 199.922699,317.613007 
	C191.587662,317.528748 183.517731,316.025970 175.939316,311.889801 
	C174.237289,310.960876 171.183426,312.508789 168.383392,312.963165 
	C166.917999,307.507202 170.539429,307.766815 174.577301,307.995300 
z"/>
<path fill="#E3B39D" opacity="1.000000" stroke="none" 
	d="
M178.126801,332.689117 
	C171.708145,331.887878 168.092834,325.917389 169.999084,319.296509 
	C172.944046,321.066040 175.827896,323.228760 178.853119,325.696960 
	C178.538879,327.002045 177.814499,327.972351 177.701370,329.009338 
	C177.582336,330.100281 178.047943,331.255035 178.126801,332.689117 
z"/>
<path fill="#E8BFAC" opacity="1.000000" stroke="none" 
	d="
M202.879196,336.684814 
	C202.398224,336.823975 201.736649,336.728180 201.044006,336.340637 
	C201.574829,336.182556 202.136703,336.316223 202.879196,336.684814 
z"/>
<path fill="#F1D0BF" opacity="1.000000" stroke="none" 
	d="
M142.247177,236.156769 
	C134.148087,224.903503 126.272942,213.832703 118.477837,202.705826 
	C117.745026,201.659805 117.119194,200.260757 117.118279,199.025116 
	C117.112236,190.879944 117.291107,182.734634 118.010468,174.450912 
	C121.773323,179.121368 125.236900,183.322449 131.979507,181.052170 
	C132.259995,180.957733 132.629120,181.127258 132.957077,181.172867 
	C139.730988,182.115112 146.479431,183.480499 153.285416,183.890427 
	C161.479324,184.383957 161.500504,184.032394 161.694122,192.148712 
	C162.826752,191.522781 164.473663,191.013901 164.458939,190.558746 
	C164.310486,185.967255 167.917313,185.669266 170.878769,184.439728 
	C171.768417,184.070374 172.304031,182.848343 173.401886,182.011551 
	C174.868973,182.003189 175.935989,182.000214 177.254440,182.164490 
	C178.340286,182.222977 179.174728,182.114243 180.390305,182.004257 
	C182.160355,181.702164 183.549255,181.401306 185.318863,181.080460 
	C186.461105,181.033173 187.222641,181.005859 187.989609,180.986221 
	C187.995041,180.993896 188.006180,181.009064 188.113007,181.226730 
	C188.418900,181.714859 188.678879,181.899658 189.248779,181.998749 
	C189.497803,181.998734 189.995850,181.998642 189.834183,182.310242 
	C186.417648,184.757095 183.121719,186.832687 179.915512,189.038651 
	C169.711349,196.059402 162.512878,204.968491 161.761322,218.246552 
	C155.519638,222.185532 150.097336,226.359100 148.941360,234.001221 
	C148.941360,234.001221 148.892624,234.471863 148.596909,234.886078 
	C147.869537,236.533966 147.437897,237.767639 147.006241,239.001328 
	C146.448593,239.773895 145.890945,240.546478 145.144867,240.839447 
	C144.318970,239.567261 143.681488,238.774673 143.043976,237.982086 
	C142.860367,237.429337 142.676743,236.876587 142.247177,236.156769 
M136.744568,216.221283 
	C135.885742,217.806763 134.844131,219.334213 134.308319,221.022217 
	C134.188049,221.401093 135.901505,222.967224 136.656876,222.888855 
	C138.086990,222.740479 139.434586,221.796600 140.816467,221.183228 
	C139.711670,219.493469 138.606873,217.803711 136.744568,216.221283 
z"/>
<path fill="#D9B29F" opacity="1.000000" stroke="none" 
	d="
M149.277451,233.864746 
	C150.097336,226.359100 155.519638,222.185532 162.121307,218.213577 
	C165.131485,216.305344 167.563599,214.684341 170.395111,213.039673 
	C180.819992,211.316635 190.845520,209.617279 200.932800,208.159271 
	C200.994553,208.400620 201.105560,208.886353 201.076324,209.335052 
	C201.030899,216.184204 201.014725,222.584686 200.582092,228.979858 
	C193.787781,229.338974 187.409927,229.703400 180.711472,230.085571 
	C179.903214,230.714386 179.415543,231.325424 178.611115,231.949982 
	C177.873001,231.997406 177.451645,232.031326 176.663544,232.084656 
	C174.208130,232.725708 172.119492,233.347351 170.023621,233.973495 
	C170.016418,233.977997 170.031677,233.965500 169.859131,233.649689 
	C167.834213,233.374863 165.981827,233.415817 164.129440,233.456787 
	C164.419617,235.638672 164.709808,237.820557 164.999985,240.002441 
	C162.689026,243.015686 160.706924,239.884445 159.207230,239.166519 
	C156.624847,237.930283 154.714706,235.347183 152.348145,233.560135 
	C151.794571,233.142120 150.543640,233.647629 149.277451,233.864746 
z"/>
<path fill="#CE9982" opacity="1.000000" stroke="none" 
	d="
M165.365051,240.010803 
	C164.709808,237.820557 164.419617,235.638672 164.129440,233.456787 
	C165.981827,233.415817 167.834213,233.374863 169.482956,233.660141 
	C168.318954,234.222992 167.358597,234.459579 166.398254,234.696182 
	C166.372421,235.137863 166.346603,235.579559 166.320770,236.021255 
	C169.010056,236.685287 171.722717,237.270248 174.376190,238.055328 
	C175.333755,238.338654 176.149216,239.102280 177.029526,239.646744 
	C174.037842,239.803024 171.046173,239.959290 167.617355,240.165543 
	C166.696854,240.150055 166.213486,240.084610 165.365051,240.010803 
z"/>
<path fill="#D7B3A2" opacity="1.000000" stroke="none" 
	d="
M142.756317,238.191193 
	C143.681488,238.774673 144.318970,239.567261 144.975250,240.680756 
	C143.962662,241.826340 142.931259,242.651031 140.572189,244.537292 
	C141.469635,241.633118 141.969131,240.016708 142.756317,238.191193 
z"/>
<path fill="#D9B29F" opacity="1.000000" stroke="none" 
	d="
M147.352081,238.963226 
	C147.437897,237.767639 147.869537,236.533966 148.588928,235.122513 
	C150.924438,236.994324 149.736862,238.085785 147.352081,238.963226 
z"/>
<path fill="#CCAB9A" opacity="1.000000" stroke="none" 
	d="
M132.974091,262.678864 
	C132.336441,262.236237 131.673065,261.472443 131.004837,260.354950 
	C131.649445,260.786713 132.298889,261.572235 132.974091,262.678864 
z"/>
<path fill="#E8BFAC" opacity="1.000000" stroke="none" 
	d="
M225.359756,351.978943 
	C219.066528,351.717346 216.859222,357.164581 213.573593,360.443512 
	C208.108398,365.897552 206.113068,366.041290 201.062347,360.376801 
	C195.807983,354.483917 189.907883,349.166809 184.144440,343.298950 
	C185.378448,342.733795 187.511932,341.766113 188.019470,342.311493 
	C192.389847,347.007904 196.404282,342.773010 200.616104,342.290161 
	C204.783096,341.812439 209.082397,342.008636 213.261169,342.472321 
	C214.229767,342.579865 214.944626,344.974060 215.879700,346.483002 
	C220.529938,345.060516 225.412308,343.566986 230.615417,342.387482 
	C229.309860,345.500275 227.683548,348.299042 226.057251,351.097839 
	C225.991638,351.418640 225.831009,351.681335 225.359756,351.978943 
z"/>
<path fill="#D6C0BC" opacity="1.000000" stroke="none" 
	d="
M226.372955,350.981384 
	C227.683548,348.299042 229.309860,345.500275 230.972336,342.353790 
	C231.008514,342.006104 231.000092,342.000793 231.323212,341.961243 
	C232.100128,341.281219 232.553940,340.640778 233.007736,340.000336 
	C233.792450,339.353912 234.577148,338.707489 235.681824,338.034790 
	C235.995346,338.944458 235.988861,339.880371 235.977142,341.163635 
	C232.877487,344.628967 229.783066,347.746948 226.372955,350.981384 
z"/>
<path fill="#EDCFC1" opacity="1.000000" stroke="none" 
	d="
M173.001831,182.016922 
	C172.304031,182.848343 171.768417,184.070374 170.878769,184.439728 
	C167.917313,185.669266 164.310486,185.967255 164.458939,190.558746 
	C164.473663,191.013901 162.826752,191.522781 161.694122,192.148712 
	C161.500504,184.032394 161.479324,184.383957 153.285416,183.890427 
	C146.479431,183.480499 139.730988,182.115112 132.957077,181.172867 
	C132.629120,181.127258 132.259995,180.957733 131.979507,181.052170 
	C125.236900,183.322449 121.773323,179.121368 118.303940,174.154114 
	C117.999756,173.243317 118.002846,172.490891 118.264008,171.165100 
	C118.046646,169.730133 117.571220,168.868500 117.095795,168.006866 
	C117.079742,163.040009 117.063705,158.073151 117.038254,152.726074 
	C118.040817,152.268524 119.052780,152.191177 120.485535,152.577530 
	C121.290497,155.583389 122.311310,158.219894 121.950935,160.651733 
	C120.196663,172.489532 123.310265,177.046097 135.061279,178.986481 
	C137.570190,179.153137 139.829880,178.988358 142.477982,178.877350 
	C143.896912,179.074265 144.927399,179.217407 146.016541,179.660553 
	C147.046783,179.986694 148.018417,180.012848 149.453445,180.069901 
	C153.946457,180.204529 157.976044,180.308258 162.122101,180.746155 
	C164.489258,180.867661 166.739944,180.655014 169.322968,180.350464 
	C170.105820,180.323685 170.556320,180.388824 171.079712,180.727188 
	C171.768997,181.339249 172.385406,181.678085 173.001831,182.016922 
z"/>
<path fill="#F1D0BF" opacity="1.000000" stroke="none" 
	d="
M117.071930,168.342834 
	C117.571220,168.868500 118.046646,169.730133 118.274567,170.788956 
	C117.700737,170.217026 117.374397,169.447906 117.071930,168.342834 
z"/>
<path fill="#D2AF9C" opacity="1.000000" stroke="none" 
	d="
M121.680809,239.041031 
	C121.552399,239.636627 121.105354,240.272644 120.340218,240.943268 
	C120.468811,240.345718 120.915497,239.713593 121.680809,239.041031 
z"/>
<path fill="#F0CFBE" opacity="1.000000" stroke="none" 
	d="
M295.304993,156.000397 
	C296.283691,155.999878 297.262360,155.999359 298.607117,155.998505 
	C298.982452,167.139069 298.365753,178.326950 299.197327,189.406143 
	C299.873962,198.421219 296.547394,205.338684 291.450043,212.079453 
	C288.763733,215.631790 286.498901,219.502853 284.004944,223.573425 
	C279.410889,229.539185 274.855652,235.161545 270.062317,241.077774 
	C268.686676,237.266159 267.495514,233.965576 266.123535,229.986465 
	C263.692749,226.759216 261.393738,224.251648 259.207886,221.649002 
	C257.397400,219.493317 255.720428,217.225510 253.985519,214.613281 
	C253.363052,212.029144 252.910324,209.772446 252.086823,207.660294 
	C247.987411,197.145844 239.691299,190.666824 230.389389,185.094284 
	C228.906555,184.205963 227.981552,182.386520 226.837708,180.467667 
	C226.842529,179.585236 226.808273,179.232681 227.160706,178.933899 
	C228.178513,179.435760 228.809647,179.883835 229.379425,180.545853 
	C229.410446,180.626175 229.502808,180.492569 230.018982,180.316666 
	C230.723785,180.315186 231.004776,180.356018 231.252136,180.620422 
	C231.372055,180.692566 231.525589,180.541138 231.959213,180.323196 
	C232.809692,180.300797 233.380081,180.344879 234.071472,180.763535 
	C240.249100,181.304779 246.305542,181.485016 252.363312,181.584305 
	C252.585831,181.587952 252.821335,180.799561 253.459686,180.314102 
	C255.242920,180.306366 256.617279,180.364792 258.007904,180.763641 
	C261.562347,181.935364 265.074005,183.295792 268.644775,183.474380 
	C274.054352,183.744934 279.503723,183.136917 284.938721,183.012100 
	C288.269989,182.935593 290.445770,181.877060 290.247253,177.919922 
	C290.971802,177.515045 291.449097,177.235641 292.270935,176.967590 
	C293.068390,175.973328 293.521332,174.967682 293.990875,173.633331 
	C294.046112,172.867477 294.084747,172.430344 294.482513,171.910141 
	C296.996857,167.286240 298.832001,162.734726 295.253845,157.671417 
	C295.238281,156.892517 295.271637,156.446457 295.304993,156.000397 
z"/>
<path fill="#D9B29F" opacity="1.000000" stroke="none" 
	d="
M253.984314,215.007355 
	C255.720428,217.225510 257.397400,219.493317 259.207886,221.649002 
	C261.393738,224.251648 263.692749,226.759216 265.971375,229.653961 
	C264.653656,231.214462 262.931610,232.200851 262.030243,233.685471 
	C259.139648,238.446381 255.151367,241.570084 249.417999,243.001663 
	C248.995804,242.302124 248.953583,241.601440 249.269577,240.448273 
	C250.735428,238.457993 252.207916,237.039490 252.769257,235.323013 
	C252.990631,234.646133 251.264832,232.559891 250.274261,232.447235 
	C248.919083,232.293152 247.419464,233.409286 245.744019,234.005585 
	C245.506287,234.030212 245.031204,234.083267 244.687424,234.060059 
	C243.884781,234.054688 243.425934,234.072525 242.645660,233.924515 
	C233.629883,229.801605 224.818848,226.512085 215.010849,228.567963 
	C216.704514,221.354630 217.031311,214.624237 214.345795,208.035248 
	C215.084900,208.006989 215.507751,208.001526 216.391357,207.994049 
	C222.193436,208.592484 227.568817,208.985260 232.865875,209.855087 
	C237.622589,210.636185 242.293228,211.941528 247.236328,213.290359 
	C249.641983,214.045853 251.813141,214.526611 253.984314,215.007355 
z"/>
<path fill="#E8BFAC" opacity="1.000000" stroke="none" 
	d="
M232.685760,340.041870 
	C232.553940,340.640778 232.100128,341.281219 231.326050,341.964966 
	C231.458450,341.366638 231.911102,340.725006 232.685760,340.041870 
z"/>
<path fill="#E1B9A6" opacity="1.000000" stroke="none" 
	d="
M245.254425,169.835388 
	C242.133514,167.380280 239.294357,165.162308 236.455200,162.944321 
	C236.735565,162.345901 237.015930,161.747482 237.296280,161.149063 
	C241.576981,161.418335 245.855698,161.869415 250.138794,161.915787 
	C257.198334,161.992218 264.260742,161.766876 271.321838,161.772842 
	C272.446594,161.773788 273.570862,162.318100 274.695374,162.611206 
	C274.377563,163.647995 274.357452,164.956024 273.697113,165.680710 
	C264.482788,175.793076 256.956940,177.181732 245.254425,169.835388 
z"/>
<path fill="#D5BAAD" opacity="1.000000" stroke="none" 
	d="
M196.618652,152.825989 
	C203.597946,145.110703 218.059753,147.389709 221.495682,156.686157 
	C223.256912,161.683914 224.675980,166.687912 225.530579,172.061798 
	C224.651550,172.600647 224.336975,172.769608 223.704987,172.938416 
	C222.492264,169.812408 221.720505,166.643738 220.656860,163.576279 
	C219.983047,161.633118 218.874420,159.840744 217.703766,157.759399 
	C213.738205,150.876129 210.336319,150.267868 202.624908,154.958374 
	C200.369965,154.249329 198.494308,153.537659 196.618652,152.825989 
z"/>
<path fill="#BAC3C3" opacity="1.000000" stroke="none" 
	d="
M240.027039,152.999207 
	C238.686050,153.544434 237.345062,154.089645 235.632965,154.785751 
	C236.222076,150.333664 237.247269,146.638214 243.086945,145.743759 
	C251.728683,143.871262 259.627838,142.457214 267.154419,147.004120 
	C270.064636,148.288483 272.974854,149.572845 277.266876,151.467026 
	C274.889618,152.420593 274.121948,152.728531 272.677673,152.974548 
	C269.677460,151.593887 267.353851,150.275116 265.026917,148.969254 
	C265.023621,148.982147 265.032959,148.963196 264.855164,148.731934 
	C264.121979,148.363998 263.566589,148.227356 262.681091,147.877167 
	C256.410858,145.786743 250.555161,145.615540 244.510712,148.597000 
	C242.788574,150.109467 241.407806,151.554337 240.027039,152.999207 
z"/>
<path fill="#D5BAAD" opacity="1.000000" stroke="none" 
	d="
M294.123352,171.993210 
	C294.084747,172.430344 294.046112,172.867477 293.743469,173.811646 
	C292.961761,175.197876 292.444092,176.077057 291.926422,176.956223 
	C291.449097,177.235641 290.971802,177.515045 289.892120,177.886154 
	C288.022247,178.173965 286.759644,178.493195 285.486359,178.543625 
	C281.311890,178.708954 277.133545,178.776611 272.769348,178.528137 
	C270.713135,177.970917 268.844238,177.767395 266.975342,177.563873 
	C270.266052,177.298584 273.746124,176.257355 276.790741,177.000397 
	C279.485474,177.658035 280.845947,177.210892 283.414001,176.296326 
	C288.397980,174.521347 289.658386,170.431564 292.980896,167.138855 
	C294.108215,167.093872 294.550690,167.040146 294.981995,167.354492 
	C294.688324,169.146118 294.405853,170.569672 294.123352,171.993210 
z"/>
<path fill="#281A14" opacity="1.000000" stroke="none" 
	d="
M266.520447,177.664612 
	C268.844238,177.767395 270.713135,177.970917 272.449005,178.604614 
	C271.891510,179.136124 271.467010,179.237442 270.680145,179.278717 
	C269.219055,179.502365 268.120392,179.786057 266.633698,180.105331 
	C263.494324,180.235031 260.742981,180.329132 257.991608,180.423248 
	C256.617279,180.364792 255.242920,180.306366 252.996765,180.218262 
	C246.066803,180.255371 240.008652,180.322174 233.950485,180.388962 
	C233.380081,180.344879 232.809692,180.300797 231.860657,180.310852 
	C231.482025,180.364990 231.285751,180.396835 231.285751,180.396835 
	C231.004776,180.356018 230.723785,180.315186 229.977005,180.332199 
	C229.511230,180.390030 229.440781,180.331924 229.440781,180.331924 
	C228.809647,179.883835 228.178513,179.435760 227.143661,178.962769 
	C226.739944,178.937851 226.701813,178.853561 226.505768,178.494568 
	C225.547287,176.403244 224.784836,174.670914 224.022400,172.938568 
	C224.336975,172.769608 224.651550,172.600647 225.501373,172.451569 
	C227.079544,175.422821 228.014984,178.497742 232.967194,177.993271 
	C239.827011,178.118668 245.921585,178.086060 252.016174,178.053467 
	C256.699280,177.957428 261.382416,177.861389 266.520447,177.664612 
z"/>
<path fill="#576D6F" opacity="1.000000" stroke="none" 
	d="
M240.343872,153.200272 
	C241.407806,151.554337 242.788574,150.109467 244.548828,149.025513 
	C246.131378,155.729126 254.495209,159.520966 260.509613,156.469849 
	C261.624451,155.904282 262.793549,155.445740 263.996979,155.000488 
	C264.056335,155.063171 264.172089,155.191269 264.172089,155.191269 
	C259.748718,162.006638 253.580582,162.556442 247.966278,157.121948 
	C246.089294,155.305084 243.126938,154.609482 240.343872,153.200272 
z"/>
<path fill="#7B7D79" opacity="1.000000" stroke="none" 
	d="
M267.156708,146.624496 
	C259.627838,142.457214 251.728683,143.871262 243.478958,145.732117 
	C248.083069,139.176498 262.666351,139.374405 267.156708,146.624496 
z"/>
<path fill="#76645A" opacity="1.000000" stroke="none" 
	d="
M294.993134,166.986420 
	C294.550690,167.040146 294.108215,167.093872 293.337799,167.072388 
	C292.818329,160.197891 292.626831,153.398636 292.657715,146.300079 
	C293.410248,147.979935 293.940430,149.959076 294.840240,152.115967 
	C295.197876,153.285004 295.185883,154.276291 295.239441,155.633987 
	C295.271637,156.446457 295.238281,156.892517 295.188110,158.116486 
	C295.111908,161.591751 295.052521,164.289078 294.993134,166.986420 
z"/>
<path fill="#D5BAAD" opacity="1.000000" stroke="none" 
	d="
M251.729736,177.746735 
	C245.921585,178.086060 239.827011,178.118668 233.351318,177.945969 
	C239.127899,177.640457 245.285599,177.540237 251.729736,177.746735 
z"/>
<path fill="#576D6F" opacity="1.000000" stroke="none" 
	d="
M265.030212,148.956360 
	C267.353851,150.275116 269.677460,151.593887 272.306702,152.998260 
	C271.868927,153.705460 271.195587,154.719238 270.367554,154.867172 
	C268.631592,155.177277 266.814270,155.031784 264.601196,155.132324 
	C264.172089,155.191269 264.056335,155.063171 264.025330,154.620651 
	C264.339600,152.437546 264.684906,150.696945 265.030212,148.956360 
z"/>
<path fill="#C4A89A" opacity="1.000000" stroke="none" 
	d="
M264.030609,138.835983 
	C265.738098,138.490463 267.576447,138.464172 269.712402,138.687195 
	C268.060455,139.009399 266.110992,139.082306 264.030609,138.835983 
z"/>
<path fill="#C4A89A" opacity="1.000000" stroke="none" 
	d="
M285.710266,138.825775 
	C285.978455,139.178284 285.958923,139.348083 285.953308,139.774017 
	C285.093750,139.897873 284.220276,139.765610 283.182159,139.343506 
	C283.819214,138.916824 284.620911,138.779953 285.710266,138.825775 
z"/>
<path fill="#F3D3C0" opacity="1.000000" stroke="none" 
	d="
M202.467392,141.450287 
	C202.522537,141.417480 202.412247,141.483109 202.467392,141.450287 
z"/>
<path fill="#F3D3C0" opacity="1.000000" stroke="none" 
	d="
M279.937561,136.776932 
	C275.958160,136.770477 271.978760,136.764023 267.398865,136.315735 
	C260.759949,135.610031 254.722565,135.304016 248.681290,135.149582 
	C248.098511,135.134689 247.491684,136.060440 246.896011,136.549530 
	C241.668228,136.402924 236.440445,136.256302 231.296539,135.602463 
	C245.034348,134.385315 258.684631,133.581024 272.345642,133.056427 
	C274.679657,132.966797 277.059540,134.072769 279.759705,135.073364 
	C280.046600,135.939178 279.992065,136.358063 279.937561,136.776932 
z"/>
<path fill="#C4A89A" opacity="1.000000" stroke="none" 
	d="
M280.309967,136.911697 
	C279.992065,136.358063 280.046600,135.939178 280.129639,135.202911 
	C281.069092,135.386642 281.980011,135.887772 282.962463,136.726868 
	C282.250122,137.058716 281.466248,137.052597 280.309967,136.911697 
z"/>
<path fill="#EDCFC1" opacity="1.000000" stroke="none" 
	d="
M133.298126,139.916351 
	C137.346710,139.396057 141.197113,139.120163 145.323547,138.467621 
	C145.599579,138.090973 145.537018,138.047226 145.951706,138.273865 
	C149.556000,138.496933 152.745621,138.493378 155.936310,138.830444 
	C155.948425,140.075516 155.959457,140.979965 155.614868,141.971054 
	C152.774490,143.381668 150.289734,144.705627 147.523468,146.189850 
	C145.753128,148.851532 141.052353,149.510406 143.113068,154.283356 
	C146.554810,155.404892 150.611176,155.207916 152.831833,157.130859 
	C157.343323,161.037567 162.247208,162.583679 166.302399,158.498703 
	C169.416504,155.361710 172.550430,154.747711 176.468750,154.938568 
	C177.642700,154.995743 178.853210,154.302231 180.303040,153.744843 
	C180.547012,149.062653 176.997635,147.710266 173.794067,145.683624 
	C173.136917,145.249008 172.569275,145.104416 172.000061,144.981750 
	C171.998505,145.003677 172.037033,144.982544 171.953400,144.647125 
	C170.258545,143.490417 168.647308,142.669159 167.017700,141.522903 
	C167.025513,140.328461 167.051727,139.459000 167.496277,138.486557 
	C174.926102,138.649475 181.937592,138.915375 188.949081,139.181274 
	C193.487030,140.275833 194.669525,143.102142 194.048187,147.599747 
	C193.572571,151.042374 194.135910,154.628540 193.827621,158.796997 
	C192.553650,165.994339 192.814133,172.941589 186.554077,177.813705 
	C184.422241,177.926422 182.712372,177.967300 180.715973,177.702850 
	C173.954941,177.591568 167.480438,177.785614 160.543213,177.948792 
	C156.069626,177.793060 152.058762,177.668198 147.925049,177.197037 
	C146.064331,176.573669 144.267273,175.878632 142.602066,176.114517 
	C139.899261,176.497345 137.282852,177.490189 134.336639,178.036621 
	C133.408188,177.103195 132.818405,175.757278 132.131149,175.705490 
	C123.609993,175.063492 124.727905,168.355011 124.062286,162.917740 
	C123.566582,158.868454 123.509941,154.765411 123.257759,150.686310 
	C123.409523,148.411224 123.561287,146.136139 123.788452,143.433914 
	C127.138657,140.591705 127.138657,140.591705 129.348557,143.351639 
	C130.600952,142.286362 131.850464,141.223557 133.298126,139.916351 
M158.523056,174.910309 
	C166.642776,173.041779 173.484604,169.139343 179.427231,162.427353 
	C177.734375,161.744904 176.797028,160.982941 175.982193,161.096909 
	C165.808624,162.519684 155.663528,162.860748 145.476379,161.128998 
	C144.523087,160.966965 142.958923,161.982819 142.384720,162.895935 
	C142.030106,163.459854 142.801575,165.023361 143.431168,165.866592 
	C147.022675,170.676743 151.584366,174.015259 158.523056,174.910309 
z"/>
<path fill="#281A14" opacity="1.000000" stroke="none" 
	d="
M155.935226,138.489838 
	C152.745621,138.493378 149.556000,138.496933 145.915695,138.286514 
	C151.889175,137.422623 158.308823,136.314667 164.738815,136.250809 
	C171.246811,136.186157 177.765076,137.154602 184.700012,137.728241 
	C186.153015,137.793182 187.184845,137.800385 188.599487,137.869919 
	C188.984451,138.140625 188.986588,138.348999 188.968903,138.869324 
	C181.937592,138.915375 174.926102,138.649475 167.054199,138.329407 
	C162.774277,138.346771 159.354752,138.418289 155.935226,138.489838 
z"/>
<path fill="#EDCFC1" opacity="1.000000" stroke="none" 
	d="
M196.416229,153.137726 
	C198.494308,153.537659 200.369965,154.249329 202.568939,155.313965 
	C201.279419,158.787323 196.134033,160.056595 197.992050,165.395447 
	C197.321442,168.525620 196.660019,171.260941 195.731049,174.213654 
	C193.640961,176.953583 191.818405,179.476105 189.995850,181.998642 
	C189.995850,181.998642 189.497803,181.998734 189.141693,181.781036 
	C188.587952,181.291153 188.328140,181.106400 188.006180,181.009064 
	C188.006180,181.009064 187.995041,180.993896 188.158997,180.685379 
	C189.822678,178.364517 192.028946,176.555557 192.678619,174.298538 
	C194.142838,169.211868 194.836563,163.903442 195.843811,158.685242 
	C195.967148,156.939987 196.090469,155.194717 196.416229,153.137726 
z"/>
<path fill="#D5BAAD" opacity="1.000000" stroke="none" 
	d="
M195.551575,158.732376 
	C194.836563,163.903442 194.142838,169.211868 192.678619,174.298538 
	C192.028946,176.555557 189.822678,178.364517 188.153564,180.677704 
	C187.222641,181.005859 186.461105,181.033173 185.309967,180.892502 
	C184.920349,180.724533 184.966995,180.352661 185.288483,180.239944 
	C186.065338,179.332108 186.520706,178.536987 186.976074,177.741867 
	C192.814133,172.941589 192.553650,165.994339 193.753525,159.199005 
	C194.479080,158.896439 194.869217,158.837967 195.551575,158.732376 
z"/>
<path fill="#76645A" opacity="1.000000" stroke="none" 
	d="
M122.996666,150.822784 
	C123.509941,154.765411 123.566582,158.868454 124.062286,162.917740 
	C124.727905,168.355011 123.609993,175.063492 132.131149,175.705490 
	C132.818405,175.757278 133.408188,177.103195 134.367615,178.150040 
	C134.691956,178.452332 134.812027,178.655029 134.812027,178.655029 
	C123.310265,177.046097 120.196663,172.489532 121.950935,160.651733 
	C122.311310,158.219894 121.290497,155.583389 120.863434,152.635681 
	C121.458878,151.806534 122.097221,151.382904 122.996666,150.822784 
z"/>
<path fill="#C4A89A" opacity="1.000000" stroke="none" 
	d="
M247.363937,136.633392 
	C247.491684,136.060440 248.098511,135.134689 248.681290,135.149582 
	C254.722565,135.304016 260.759949,135.610031 266.950073,136.230835 
	C260.678436,136.630936 254.255142,136.674103 247.363937,136.633392 
z"/>
<path fill="#E8BAA6" opacity="1.000000" stroke="none" 
	d="
M186.630951,259.312592 
	C185.479279,255.853790 187.226410,255.029465 189.804672,255.025330 
	C201.956482,255.005844 214.108353,255.002350 226.260147,255.029373 
	C230.255447,255.038254 230.711517,257.666382 229.565384,260.484589 
	C224.966827,271.791779 213.935913,277.724518 201.749023,273.937195 
	C194.160690,271.578918 188.848724,267.502686 186.630951,259.312592 
z"/>
<path fill="#CA8B71" opacity="1.000000" stroke="none" 
	d="
M215.001022,228.983932 
	C224.818848,226.512085 233.629883,229.801605 242.695206,234.210541 
	C243.392746,234.965546 243.719345,235.268692 244.045959,235.571838 
	C244.374374,235.075653 244.702789,234.579468 245.031219,234.083267 
	C245.031204,234.083267 245.506287,234.030212 246.113739,234.019440 
	C247.383575,234.819656 248.045944,235.630646 248.708298,236.441635 
	C247.752625,236.997437 246.854263,237.864243 245.830933,238.052826 
	C242.231110,238.716248 238.588333,239.146698 234.961853,239.665543 
	C233.266556,239.706802 231.571243,239.748032 229.325256,239.379456 
	C225.502655,239.196564 222.230774,239.423477 218.958878,239.650391 
	C211.626038,239.697159 204.293213,239.743927 196.386017,239.400635 
	C193.860764,239.224487 191.909836,239.438400 189.958923,239.652344 
	C187.611496,239.697647 185.264053,239.742935 182.416077,239.470566 
	C181.261536,239.318771 180.607513,239.484634 179.953506,239.650497 
	C179.220276,239.703140 178.487061,239.755768 177.391678,239.727570 
	C176.149216,239.102280 175.333755,238.338654 174.376190,238.055328 
	C171.722717,237.270248 169.010056,236.685287 166.320770,236.021255 
	C166.346603,235.579559 166.372421,235.137863 166.398254,234.696182 
	C167.358597,234.459579 168.318954,234.222992 169.655487,233.975952 
	C170.031677,233.965500 170.016418,233.977997 170.066040,234.322083 
	C173.560577,236.830063 175.390656,234.700806 177.030304,232.065247 
	C177.451645,232.031326 177.873001,231.997406 178.936768,231.935089 
	C180.063492,231.293732 180.547775,230.680786 181.032074,230.067841 
	C187.409927,229.703400 193.787781,229.338974 200.816284,229.261230 
	C206.078308,231.759903 210.656189,233.168030 215.001022,228.983932 
z"/>
<path fill="#CE9982" opacity="1.000000" stroke="none" 
	d="
M235.420563,239.764893 
	C238.588333,239.146698 242.231110,238.716248 245.830933,238.052826 
	C246.854263,237.864243 247.752625,236.997437 248.708298,236.441635 
	C248.045944,235.630646 247.383575,234.819656 246.351486,233.994812 
	C247.419464,233.409286 248.919083,232.293152 250.274261,232.447235 
	C251.264832,232.559891 252.990631,234.646133 252.769257,235.323013 
	C252.207916,237.039490 250.735428,238.457993 249.240829,240.098541 
	C244.529007,240.088928 240.204132,239.976608 235.420563,239.764893 
z"/>
<path fill="#CE9982" opacity="1.000000" stroke="none" 
	d="
M219.408051,239.752930 
	C222.230774,239.423477 225.502655,239.196564 228.905746,239.311798 
	C225.977036,239.721130 222.917145,239.788315 219.408051,239.752930 
z"/>
<path fill="#CE9982" opacity="1.000000" stroke="none" 
	d="
M190.385193,239.754761 
	C191.909836,239.438400 193.860764,239.224487 195.925812,239.330475 
	C194.297104,239.719330 192.554276,239.788254 190.385193,239.754761 
z"/>
<path fill="#D2AF9C" opacity="1.000000" stroke="none" 
	d="
M168.953308,264.637817 
	C168.439911,263.826141 167.938461,262.648163 167.690887,261.247314 
	C168.284927,262.106842 168.625092,263.189178 168.953308,264.637817 
z"/>
<path fill="#CE9982" opacity="1.000000" stroke="none" 
	d="
M180.298096,239.745026 
	C180.607513,239.484634 181.261536,239.318771 181.981049,239.401230 
	C181.578598,239.712891 181.110657,239.776230 180.298096,239.745026 
z"/>
<path fill="#E2B8A5" opacity="1.000000" stroke="none" 
	d="
M189.834183,182.310242 
	C191.818405,179.476105 193.640961,176.953583 196.057953,174.361374 
	C201.149490,176.153168 197.504105,179.438812 197.842270,182.361237 
	C195.948212,187.332703 197.150681,190.957840 201.180344,193.806396 
	C202.299789,194.597748 203.079254,195.870041 203.632156,196.941483 
	C200.805710,196.941956 198.361801,196.922607 195.616486,196.901306 
	C194.910980,196.906326 194.506897,196.913300 193.831207,196.904572 
	C193.379227,196.869476 193.198883,196.850098 192.710968,196.571960 
	C189.594650,196.198364 186.785919,196.083542 183.974014,195.610886 
	C183.735016,194.289825 183.499161,193.326584 183.096542,191.682159 
	C180.195816,195.687347 177.581909,198.868301 175.459305,202.348892 
	C173.378006,205.761749 171.796555,209.479446 169.995728,213.063354 
	C167.563599,214.684341 165.131485,216.305344 162.339386,217.959305 
	C162.512878,204.968491 169.711349,196.059402 179.915512,189.038651 
	C183.121719,186.832687 186.417648,184.757095 189.834183,182.310242 
z"/>
<path fill="#CCAB9A" opacity="1.000000" stroke="none" 
	d="
M137.123322,216.167603 
	C138.606873,217.803711 139.711670,219.493469 140.816467,221.183228 
	C139.434586,221.796600 138.086990,222.740479 136.656876,222.888855 
	C135.901505,222.967224 134.188049,221.401093 134.308319,221.022217 
	C134.844131,219.334213 135.885742,217.806763 137.123322,216.167603 
z"/>
<path fill="#F3D3C0" opacity="1.000000" stroke="none" 
	d="
M173.401886,182.011551 
	C172.385406,181.678085 171.768997,181.339249 171.499054,180.627655 
	C173.561584,180.314850 175.277603,180.374771 176.992004,180.695129 
	C176.994598,181.302780 176.998810,181.650009 177.003021,181.997223 
	C175.935989,182.000214 174.868973,182.003189 173.401886,182.011551 
z"/>
<path fill="#EDCFC1" opacity="1.000000" stroke="none" 
	d="
M177.254440,182.164474 
	C176.998810,181.650009 176.994598,181.302780 177.362732,180.600006 
	C178.491501,180.310135 179.247925,180.375839 180.006912,180.702148 
	C180.009369,181.310349 180.009262,181.657913 180.009155,182.005493 
	C179.174728,182.114243 178.340286,182.222977 177.254440,182.164474 
z"/>
<path fill="#F3D3C0" opacity="1.000000" stroke="none" 
	d="
M180.390305,182.004242 
	C180.009262,181.657913 180.009369,181.310349 180.411133,180.600830 
	C182.197510,180.276810 183.582260,180.314728 184.966995,180.352661 
	C184.966995,180.352661 184.920349,180.724533 184.929260,180.912491 
	C183.549255,181.401306 182.160355,181.702164 180.390305,182.004242 
z"/>
<path fill="#F3D3C0" opacity="1.000000" stroke="none" 
	d="
M188.113007,181.226730 
	C188.328140,181.106400 188.587952,181.291153 188.892670,181.781052 
	C188.678879,181.899658 188.418900,181.714859 188.113007,181.226730 
z"/>
<path fill="#D1A590" opacity="1.000000" stroke="none" 
	d="
M215.010849,228.567963 
	C210.656189,233.168030 206.078308,231.759903 201.232742,229.266541 
	C201.014725,222.584686 201.030899,216.184204 201.520111,209.360779 
	C206.005264,208.644562 210.017395,208.351288 214.029510,208.058014 
	C217.031311,214.624237 216.704514,221.354630 215.010849,228.567963 
z"/>
<path fill="#C28973" opacity="1.000000" stroke="none" 
	d="
M214.345795,208.035248 
	C210.017395,208.351288 206.005264,208.644562 201.549347,208.912094 
	C201.105560,208.886353 200.994553,208.400620 200.886993,207.807205 
	C198.196136,205.886200 195.612823,204.558594 193.025726,202.834396 
	C193.987259,200.592957 194.952576,198.748108 195.917908,196.903275 
	C198.361801,196.922607 200.805710,196.941956 204.045197,196.970703 
	C206.221268,196.970428 207.601730,196.960739 209.434692,196.979385 
	C214.245972,196.693954 218.604752,196.380203 222.974335,196.509369 
	C222.958984,198.435898 222.932846,199.919510 222.527191,201.398102 
	C219.346039,201.091354 216.836380,201.316269 216.106796,205.152405 
	C216.050568,206.372086 215.990585,207.184067 215.930588,207.996063 
	C215.507751,208.001526 215.084900,208.006989 214.345795,208.035248 
z"/>
<path fill="#F3CDBA" opacity="1.000000" stroke="none" 
	d="
M193.029510,203.230988 
	C195.612823,204.558594 198.196136,205.886200 200.825241,207.565857 
	C190.845520,209.617279 180.819992,211.316635 170.395096,213.039673 
	C171.796555,209.479446 173.378006,205.761749 175.459305,202.348892 
	C177.581909,198.868301 180.195816,195.687347 183.096542,191.682159 
	C183.499161,193.326584 183.735016,194.289825 183.967392,196.004440 
	C185.407242,199.354843 186.519592,202.230347 188.391663,204.471161 
	C190.090363,206.504456 192.120300,206.069550 193.029510,203.230988 
z"/>
<path fill="#CE9982" opacity="1.000000" stroke="none" 
	d="
M176.663544,232.084656 
	C175.390656,234.700806 173.560577,236.830063 170.073242,234.317566 
	C172.119492,233.347351 174.208130,232.725708 176.663544,232.084656 
z"/>
<path fill="#CE9982" opacity="1.000000" stroke="none" 
	d="
M180.711487,230.085587 
	C180.547775,230.680786 180.063492,231.293732 179.253540,231.921570 
	C179.415543,231.325424 179.903214,230.714386 180.711487,230.085587 
z"/>
<path fill="#110B09" opacity="1.000000" stroke="none" 
	d="
M185.288483,180.239944 
	C183.582260,180.314728 182.197510,180.276810 180.408569,180.340210 
	C179.247925,180.375839 178.491501,180.310135 177.364349,180.339569 
	C175.277603,180.374771 173.561584,180.314850 171.426193,180.354431 
	C170.556320,180.388824 170.105820,180.323685 168.895081,180.250946 
	C166.091782,180.299561 164.048721,180.355789 162.005646,180.412003 
	C157.976044,180.308258 153.946457,180.204529 149.286758,179.768036 
	C147.757080,179.410355 146.857483,179.385468 145.957901,179.360565 
	C144.927399,179.217407 143.896912,179.074265 142.694626,178.549377 
	C144.364532,177.959534 146.206207,177.751434 148.047897,177.543335 
	C152.058762,177.668198 156.069626,177.793060 160.748077,178.332306 
	C167.944611,178.500504 174.473557,178.254333 181.002502,178.008163 
	C182.712372,177.967300 184.422241,177.926422 186.554092,177.813705 
	C186.520706,178.536987 186.065338,179.332108 185.288483,180.239944 
z"/>
<path fill="#D5BAAD" opacity="1.000000" stroke="none" 
	d="
M147.925049,177.197037 
	C146.206207,177.751434 144.364532,177.959534 142.306198,178.495605 
	C139.829880,178.988358 137.570190,179.153137 135.061279,178.986481 
	C134.812027,178.655029 134.691956,178.452332 134.660980,178.338928 
	C137.282852,177.490189 139.899261,176.497345 142.602066,176.114517 
	C144.267273,175.878632 146.064331,176.573669 147.925049,177.197037 
z"/>
<path fill="#F3D3C0" opacity="1.000000" stroke="none" 
	d="
M162.122101,180.746155 
	C164.048721,180.355789 166.091782,180.299561 168.562744,180.342865 
	C166.739944,180.655014 164.489258,180.867661 162.122101,180.746155 
z"/>
<path fill="#D5BAAD" opacity="1.000000" stroke="none" 
	d="
M146.016541,179.660553 
	C146.857483,179.385468 147.757080,179.410355 148.823349,179.737122 
	C148.018417,180.012848 147.046783,179.986694 146.016541,179.660553 
z"/>
<path fill="#E1B9A6" opacity="1.000000" stroke="none" 
	d="
M253.985519,214.613281 
	C251.813141,214.526611 249.641983,214.045853 247.198013,212.934113 
	C245.756897,210.170761 244.823349,207.860977 243.372910,205.941818 
	C240.034241,201.524231 236.444214,197.296600 232.612869,192.937927 
	C228.814713,189.577469 224.675461,188.432846 219.994339,188.609741 
	C218.994003,185.480911 217.994247,182.740265 217.307495,179.864944 
	C219.745758,179.829254 221.871002,179.928238 224.192886,180.274445 
	C225.192551,180.680267 225.995605,180.838913 226.798645,180.997543 
	C227.981552,182.386520 228.906555,184.205963 230.389389,185.094284 
	C239.691299,190.666824 247.987411,197.145844 252.086823,207.660294 
	C252.910324,209.772446 253.363052,212.029144 253.985519,214.613281 
z"/>
<path fill="#ECD0C1" opacity="1.000000" stroke="none" 
	d="
M258.007904,180.763657 
	C260.742981,180.329132 263.494324,180.235031 266.848694,180.350159 
	C268.648651,180.152512 269.845612,179.745636 271.042542,179.338776 
	C271.467010,179.237442 271.891510,179.136124 272.636353,178.958313 
	C277.133545,178.776611 281.311890,178.708954 285.486359,178.543625 
	C286.759644,178.493195 288.022247,178.173965 289.644897,178.011627 
	C290.445770,181.877060 288.269989,182.935593 284.938721,183.012100 
	C279.503723,183.136917 274.054352,183.744934 268.644775,183.474380 
	C265.074005,183.295792 261.562347,181.935364 258.007904,180.763657 
z"/>
<path fill="#D5BAAD" opacity="1.000000" stroke="none" 
	d="
M234.071472,180.763535 
	C240.008652,180.322174 246.066803,180.255371 252.587891,180.284424 
	C252.821335,180.799561 252.585831,181.587952 252.363312,181.584305 
	C246.305542,181.485016 240.249100,181.304779 234.071472,180.763535 
z"/>
<path fill="#ECD0C1" opacity="1.000000" stroke="none" 
	d="
M294.981995,167.354492 
	C295.052521,164.289078 295.111908,161.591751 295.237061,158.449341 
	C298.832001,162.734726 296.996857,167.286240 294.482513,171.910141 
	C294.405853,170.569672 294.688324,169.146118 294.981995,167.354492 
z"/>
<path fill="#D5BAAD" opacity="1.000000" stroke="none" 
	d="
M226.837708,180.467667 
	C225.995605,180.838913 225.192551,180.680267 224.201874,180.039642 
	C224.014252,179.557663 224.034531,179.088867 224.478790,179.058060 
	C225.515976,178.969360 226.108902,178.911469 226.701813,178.853561 
	C226.701813,178.853561 226.739944,178.937851 226.756989,178.908997 
	C226.808273,179.232681 226.842529,179.585236 226.837708,180.467667 
z"/>
<path fill="#ECD0C1" opacity="1.000000" stroke="none" 
	d="
M292.270935,176.967590 
	C292.444092,176.077057 292.961761,175.197876 293.726807,174.140366 
	C293.521332,174.967682 293.068390,175.973328 292.270935,176.967590 
z"/>
<path fill="#D5BAAD" opacity="1.000000" stroke="none" 
	d="
M229.379425,180.545853 
	C229.440781,180.331924 229.511230,180.390030 229.553207,180.374496 
	C229.502808,180.492569 229.410446,180.626175 229.379425,180.545853 
z"/>
<path fill="#D5BAAD" opacity="1.000000" stroke="none" 
	d="
M231.252136,180.620422 
	C231.285751,180.396835 231.482025,180.364990 231.580582,180.377350 
	C231.525589,180.541138 231.372055,180.692566 231.252136,180.620422 
z"/>
<path fill="#F3CDBA" opacity="1.000000" stroke="none" 
	d="
M232.956192,192.991882 
	C236.444214,197.296600 240.034241,201.524231 243.372910,205.941818 
	C244.823349,207.860977 245.756897,210.170761 246.963531,212.659363 
	C242.293228,211.941528 237.622589,210.636185 232.865875,209.855087 
	C227.568817,208.985260 222.193436,208.592484 216.391357,207.994049 
	C215.990585,207.184067 216.050568,206.372086 216.477676,205.237106 
	C219.555099,204.944183 222.265411,204.974243 225.347443,205.046082 
	C230.361282,203.824677 232.087646,200.521286 232.323349,195.785248 
	C232.698822,194.709488 232.827515,193.850693 232.956192,192.991882 
z"/>
<path fill="#CE9982" opacity="1.000000" stroke="none" 
	d="
M244.687439,234.060059 
	C244.702789,234.579468 244.374374,235.075653 244.045959,235.571838 
	C243.719345,235.268692 243.392746,234.965546 243.016617,234.376373 
	C243.425934,234.072525 243.884781,234.054688 244.687439,234.060059 
z"/>
<path fill="#E9C0B2" opacity="1.000000" stroke="none" 
	d="
M198.001221,165.000610 
	C196.134033,160.056595 201.279419,158.787323 202.948227,155.311340 
	C210.336319,150.267868 213.738205,150.876129 217.718750,158.178482 
	C217.989380,160.213821 217.987976,161.608734 217.579697,163.011169 
	C210.782288,163.679321 204.391754,164.339966 198.001221,165.000610 
z"/>
<path fill="#F0CFBE" opacity="1.000000" stroke="none" 
	d="
M217.986572,163.003662 
	C217.987976,161.608734 217.989380,160.213821 217.975800,158.399811 
	C218.874420,159.840744 219.983047,161.633118 220.656860,163.576279 
	C221.720505,166.643738 222.492264,169.812408 223.704987,172.938400 
	C224.784836,174.670914 225.547287,176.403244 226.505768,178.494568 
	C226.108902,178.911469 225.515976,178.969360 224.222137,178.870880 
	C222.688141,177.807266 221.855103,176.900009 220.892731,175.718323 
	C220.178421,174.626846 219.593460,173.809799 219.011139,172.589783 
	C218.671387,169.125763 218.328979,166.064713 217.986572,163.003662 
z"/>
<path fill="#476F7C" opacity="1.000000" stroke="none" 
	d="
M265.026917,148.969254 
	C264.684906,150.696945 264.339600,152.437546 263.965973,154.557983 
	C262.793549,155.445740 261.624451,155.904282 260.509613,156.469849 
	C254.495209,159.520966 246.131378,155.729126 244.890198,148.957916 
	C250.555161,145.615540 256.410858,145.786743 262.698181,148.133026 
	C263.707916,148.722656 264.370453,148.842926 265.032959,148.963196 
	C265.032959,148.963196 265.023621,148.982147 265.026917,148.969254 
z"/>
<path fill="#576D6F" opacity="1.000000" stroke="none" 
	d="
M264.855164,148.731934 
	C264.370453,148.842926 263.707916,148.722656 263.028320,148.346542 
	C263.566589,148.227356 264.121979,148.363998 264.855164,148.731934 
z"/>
<path fill="#D5BAAD" opacity="1.000000" stroke="none" 
	d="
M270.680145,179.278717 
	C269.845612,179.745636 268.648651,180.152512 267.236694,180.314545 
	C268.120392,179.786057 269.219055,179.502365 270.680145,179.278717 
z"/>
<path fill="#E1B9A6" opacity="1.000000" stroke="none" 
	d="
M158.125183,174.839294 
	C151.584366,174.015259 147.022675,170.676743 143.431168,165.866592 
	C142.801575,165.023361 142.030106,163.459854 142.384720,162.895935 
	C142.958923,161.982819 144.523087,160.966965 145.476379,161.128998 
	C155.663528,162.860748 165.808624,162.519684 175.982193,161.096909 
	C176.797028,160.982941 177.734375,161.744904 179.427231,162.427353 
	C173.484604,169.139343 166.642776,173.041779 158.125183,174.839294 
z"/>
<path fill="#576D6F" opacity="1.000000" stroke="none" 
	d="
M180.046982,153.952621 
	C178.853210,154.302231 177.642700,154.995743 176.468750,154.938568 
	C172.550430,154.747711 169.416504,155.361710 166.302399,158.498703 
	C162.247208,162.583679 157.343323,161.037567 152.831833,157.130859 
	C150.611176,155.207916 146.554810,155.404892 143.423462,154.154999 
	C145.997131,152.067673 148.476456,150.467926 150.967438,149.269867 
	C151.785065,154.222290 159.223526,159.201630 163.039429,157.350967 
	C166.870926,155.492737 170.483414,153.068207 172.460693,148.828583 
	C175.214722,150.595551 177.630844,152.274094 180.046982,153.952621 
z"/>
<path fill="#BAC3C3" opacity="1.000000" stroke="none" 
	d="
M150.955780,148.868179 
	C148.476456,150.467926 145.997131,152.067673 143.207397,153.795776 
	C141.052353,149.510406 145.753128,148.851532 147.952240,146.224930 
	C156.363724,143.837967 164.174377,143.866394 172.037033,144.982544 
	C172.037033,144.982544 171.998505,145.003677 172.060257,145.286194 
	C172.709198,145.703705 173.296387,145.838684 173.883575,145.973663 
	C176.997635,147.710266 180.547012,149.062653 180.303040,153.744843 
	C177.630844,152.274094 175.214722,150.595551 172.163818,148.614075 
	C164.581009,145.162064 157.727905,145.519806 150.955780,148.868179 
z"/>
<path fill="#7B7D79" opacity="1.000000" stroke="none" 
	d="
M171.953400,144.647125 
	C164.174377,143.866394 156.363724,143.837967 148.233749,146.064697 
	C150.289734,144.705627 152.774490,143.381668 156.015228,141.968353 
	C160.192841,141.868637 163.614471,141.858261 167.036087,141.847885 
	C168.647308,142.669159 170.258545,143.490417 171.953400,144.647125 
z"/>
<path fill="#D5BAAD" opacity="1.000000" stroke="none" 
	d="
M180.715973,177.702850 
	C174.473557,178.254333 167.944611,178.500504 161.210800,178.363174 
	C167.480438,177.785614 173.954941,177.591568 180.715973,177.702850 
z"/>
<path fill="#D5BAAD" opacity="1.000000" stroke="none" 
	d="
M167.017700,141.522903 
	C163.614471,141.858261 160.192841,141.868637 156.370850,141.881714 
	C155.959457,140.979965 155.948425,140.075516 155.936310,138.830444 
	C159.354752,138.418289 162.774277,138.346771 166.635864,138.432404 
	C167.051727,139.459000 167.025513,140.328461 167.017700,141.522903 
z"/>
<path fill="#7B7D79" opacity="1.000000" stroke="none" 
	d="
M173.794067,145.683624 
	C173.296387,145.838684 172.709198,145.703705 172.061829,145.264252 
	C172.569275,145.104416 173.136917,145.249008 173.794067,145.683624 
z"/>
<path fill="#E8BFAC" opacity="1.000000" stroke="none" 
	d="
M221.022064,175.992752 
	C221.855103,176.900009 222.688141,177.807266 223.777863,178.901703 
	C224.034531,179.088867 224.014252,179.557663 224.005249,179.792450 
	C221.871002,179.928238 219.745758,179.829254 216.930969,179.822784 
	C209.740128,176.926041 203.429367,175.604248 198.000610,182.000000 
	C197.504105,179.438812 201.149490,176.153168 196.325485,174.143982 
	C196.660019,171.260941 197.321442,168.525620 197.992050,165.395447 
	C204.391754,164.339966 210.782288,163.679321 217.579681,163.011169 
	C218.328979,166.064713 218.671387,169.125763 218.663086,172.627594 
	C216.914551,173.985458 215.516724,174.902557 214.118896,175.819641 
	C214.409439,176.488403 214.699982,177.157166 214.990509,177.825928 
	C217.001038,177.214859 219.011551,176.603806 221.022064,175.992752 
z"/>
<path fill="#E9C0B1" opacity="1.000000" stroke="none" 
	d="
M197.842270,182.361237 
	C203.429367,175.604248 209.740128,176.926041 216.617981,179.957458 
	C217.994247,182.740265 218.994003,185.480911 219.843689,188.917145 
	C217.194550,192.499939 215.092850,196.007111 210.327744,195.220154 
	C209.983902,195.163361 209.435501,196.345154 208.982193,196.951065 
	C207.601730,196.960739 206.221268,196.970428 204.427765,196.950897 
	C203.079254,195.870041 202.299789,194.597748 201.180344,193.806396 
	C197.150681,190.957840 195.948212,187.332703 197.842270,182.361237 
z"/>
<path fill="#CE9982" opacity="1.000000" stroke="none" 
	d="
M193.025726,202.834396 
	C192.120300,206.069550 190.090363,206.504456 188.391663,204.471161 
	C186.519592,202.230347 185.407242,199.354843 183.970551,196.362259 
	C186.785919,196.083542 189.594650,196.198364 192.781616,196.776001 
	C193.474167,197.132629 193.788498,197.026443 194.102814,196.920273 
	C194.506897,196.913300 194.910980,196.906326 195.616486,196.901306 
	C194.952576,198.748108 193.987259,200.592957 193.025726,202.834396 
z"/>
<path fill="#C28973" opacity="1.000000" stroke="none" 
	d="
M193.831207,196.904572 
	C193.788498,197.026443 193.474167,197.132629 193.089203,197.034760 
	C193.198883,196.850098 193.379227,196.869476 193.831207,196.904572 
z"/>
<path fill="#E3B39D" opacity="1.000000" stroke="none" 
	d="
M209.434692,196.979385 
	C209.435501,196.345154 209.983902,195.163361 210.327744,195.220154 
	C215.092850,196.007111 217.194550,192.499939 219.844284,189.305313 
	C224.675461,188.432846 228.814713,189.577469 232.612869,192.937927 
	C232.827515,193.850693 232.698822,194.709488 231.864288,195.786301 
	C228.426819,196.025009 225.695175,196.045731 222.963547,196.066452 
	C218.604752,196.380203 214.245972,196.693954 209.434692,196.979385 
z"/>
<path fill="#CE9982" opacity="1.000000" stroke="none" 
	d="
M222.974335,196.509369 
	C225.695175,196.045731 228.426819,196.025009 231.617493,196.003235 
	C232.087646,200.521286 230.361282,203.824677 225.309906,204.714813 
	C224.235992,203.362213 223.571350,202.382660 222.906708,201.403122 
	C222.932846,199.919510 222.958984,198.435898 222.974335,196.509369 
z"/>
<path fill="#433029" opacity="1.000000" stroke="none" 
	d="
M222.527191,201.398102 
	C223.571350,202.382660 224.235992,203.362213 224.938171,204.673035 
	C222.265411,204.974243 219.555099,204.944183 216.473923,204.829422 
	C216.836380,201.316269 219.346039,201.091354 222.527191,201.398102 
z"/>
<path fill="#E1B9A6" opacity="1.000000" stroke="none" 
	d="
M220.892731,175.718323 
	C219.011551,176.603806 217.001038,177.214859 214.990509,177.825928 
	C214.699982,177.157166 214.409439,176.488403 214.118896,175.819641 
	C215.516724,174.902557 216.914551,173.985458 218.660431,173.030563 
	C219.593460,173.809799 220.178421,174.626846 220.892731,175.718323 
z"/>
<path fill="#476F7C" opacity="1.000000" stroke="none" 
	d="
M150.967438,149.269867 
	C157.727905,145.519806 164.581009,145.162064 171.825928,148.525635 
	C170.483414,153.068207 166.870926,155.492737 163.039429,157.350967 
	C159.223526,159.201630 151.785065,154.222290 150.967438,149.269867 
z"/>
</svg>